ply
format ascii 1.0
comment Created by Blender 3.3.0 - www.blender.org
element vertex 505
property float x
property float y
property float z
property float nx
property float ny
property float nz
element face 500
property list uchar uint vertex_indices
end_header
0.527043 2.855966 1.769808 0.841196 -0.209753 -0.498391
0.460917 2.848154 1.717774 0.302964 -0.205105 -0.930669
0.479888 2.926279 1.625632 0.267999 -0.612194 -0.743905
0.608233 2.941904 1.722933 0.692925 -0.597204 -0.403984
-0.386138 2.926279 2.125632 -0.778240 -0.612194 -0.139859
-0.296855 2.848154 2.155274 -0.957465 -0.205105 -0.202960
-0.284856 2.855966 2.238558 -0.852217 -0.209752 0.479302
-0.366046 2.941904 2.285433 -0.696323 -0.597204 0.398098
0.500951 3.035654 1.568365 0.317710 -0.483552 -0.815621
0.662360 3.051279 1.691683 0.750442 -0.495796 -0.437061
-0.446264 3.035654 2.115240 -0.865204 -0.483552 -0.132666
-0.420172 3.051279 2.316683 -0.753727 -0.495796 0.431372
0.320087 2.895029 1.645724 -0.290424 -0.652982 -0.699477
0.292743 2.996591 1.598363 -0.333127 -0.484671 -0.808777
-0.316181 2.996591 1.949926 -0.533858 -0.484671 -0.692885
-0.288837 2.895029 1.997287 -0.460553 -0.652982 -0.601253
0.370868 2.832529 1.733680 -0.450050 -0.259246 -0.854545
-0.238056 2.832529 2.085242 -0.515032 -0.259246 -0.817027
0.318835 2.816904 1.799806 -0.913970 -0.300827 -0.272325
0.222786 2.871591 1.774069 -0.457923 -0.869269 -0.186223
-0.129036 2.871591 1.977194 0.067688 -0.869268 -0.489684
-0.154773 2.816904 2.073243 0.221145 -0.300827 -0.927684
0.162660 2.965341 1.763678 -0.795306 -0.540238 -0.275011
-0.107973 2.965341 1.919928 0.159486 -0.540238 -0.826261
0.242879 2.871591 1.933870 -0.602791 -0.719959 0.343950
0.188752 2.957529 1.965120 -0.707545 -0.579713 0.404119
0.053436 2.957529 2.043245 0.703750 -0.579713 -0.410692
-0.000691 2.871591 2.074495 0.599265 -0.719959 -0.350057
0.330834 2.816904 1.883089 -0.825759 -0.323704 0.461885
-0.088647 2.816904 2.125276 0.812883 -0.323703 -0.484187
0.400866 2.816904 1.941888 -0.227769 -0.288932 0.929860
0.371224 2.871591 2.031171 -0.131615 -0.719134 0.682293
0.019401 2.871591 2.234296 0.656690 -0.719135 0.227165
-0.072741 2.816904 2.215325 0.919167 -0.288932 0.267675
0.354066 2.965341 2.095203 -0.145526 -0.571586 0.807535
0.083434 2.965341 2.251453 0.772108 -0.571586 0.277738
0.531025 2.895029 2.011079 0.458307 -0.664668 0.590061
0.562275 2.996591 2.065205 0.524676 -0.532842 0.663924
-0.046650 2.996591 2.416768 0.312637 -0.532842 0.786344
-0.077900 2.895029 2.362641 0.281854 -0.664667 0.691936
0.484150 2.832529 1.929889 0.513302 -0.236865 0.824873
-0.124775 2.832529 2.281451 0.457711 -0.236864 0.856969
0.542949 2.848154 1.859857 0.960359 -0.194936 0.199275
0.628325 2.926279 1.882733 0.774422 -0.620319 0.124396
-0.237700 2.926279 2.382733 -0.279481 -0.620319 0.732868
-0.214824 2.848154 2.297357 -0.307603 -0.194936 0.931333
0.692358 3.035654 1.899891 0.851230 -0.508449 0.129951
-0.254858 3.035654 2.446766 -0.313074 -0.508449 0.802162
0.553621 2.832529 1.862716 0.950205 -0.237444 0.201821
0.533809 2.840341 1.765901 0.837188 -0.227294 -0.497448
-0.217683 2.832529 2.308029 -0.300321 -0.237443 0.923812
-0.291621 2.840341 2.242464 -0.849396 -0.227294 0.476303
0.491962 2.809091 1.943420 0.499233 -0.356421 0.789766
-0.116962 2.809091 2.294983 0.434342 -0.356420 0.827232
0.398007 2.793466 1.952560 -0.218913 -0.434778 0.873524
-0.062069 2.793466 2.218185 0.865951 -0.434778 0.247177
0.317303 2.793466 1.890901 -0.795333 -0.411616 0.444992
-0.075115 2.793466 2.117464 0.783041 -0.411616 -0.466283
0.308163 2.793466 1.796946 -0.862222 -0.436421 -0.257119
-0.151913 2.793466 2.062571 0.208439 -0.436421 -0.875266
0.363056 2.809091 1.720148 -0.435569 -0.352425 -0.828297
-0.245868 2.809091 2.071711 -0.499541 -0.352425 -0.791363
0.463777 2.832529 1.707102 0.290825 -0.239080 -0.926424
-0.307527 2.832529 2.152415 -0.947720 -0.239079 -0.211350
0.425556 2.785654 1.828401 0.156363 -0.982981 -0.096430
-0.183368 2.785654 2.179964 -0.161693 -0.982981 0.087199
-0.328761 3.059091 0.865636 -0.350741 -0.159590 -0.922774
-0.322761 2.980966 0.907278 -0.231374 -0.635662 -0.736478
-0.472656 2.973154 0.975777 -0.396096 -0.610272 -0.686059
-0.492188 3.035654 0.941948 -0.488867 -0.209845 -0.846743
-0.606926 2.980966 1.071340 -0.522122 -0.635662 -0.568615
-0.639989 3.059091 1.045324 -0.623775 -0.159590 -0.765138
-0.188492 3.090341 0.811715 0.195599 -0.148000 -0.969452
-0.254057 2.980966 0.885653 0.005172 -0.696975 -0.717077
-0.660006 2.980966 1.120028 -0.623593 -0.696975 -0.354060
-0.756821 3.090341 1.139840 -0.937370 -0.148000 -0.315332
-0.127319 3.082529 0.839544 0.766046 -0.195391 -0.612370
-0.180118 2.949716 0.951218 0.373441 -0.802688 -0.465010
-0.640194 2.949716 1.216843 -0.589431 -0.802688 0.090904
-0.763306 3.082529 1.206732 -0.913351 -0.195391 0.357230
-0.043194 3.043466 1.016503 0.892498 -0.197049 -0.405733
-0.135056 2.926279 1.060518 0.475296 -0.822466 -0.312478
-0.568069 2.926279 1.310518 -0.508262 -0.822466 0.255379
-0.652118 3.043466 1.368065 -0.797624 -0.197049 0.570060
0.051883 3.043466 1.259306 0.945301 -0.143515 -0.292931
-0.039979 2.902841 1.303321 0.564519 -0.801652 -0.196652
-0.405333 2.902841 1.514259 -0.452565 -0.801652 0.390561
-0.489383 3.043466 1.571806 -0.726336 -0.143515 0.672190
0.082161 3.051279 1.530500 0.589464 -0.170289 -0.789642
0.308574 3.082529 1.453907 -0.153550 -0.045459 -0.987095
0.321619 2.941904 1.554628 0.071078 -0.766193 -0.638668
0.057472 2.801279 1.643986 -0.039014 -0.978970 -0.200241
-0.368494 2.941904 1.953066 -0.588641 -0.766193 -0.257778
-0.449199 3.082529 1.891407 -0.778074 -0.045459 -0.626526
-0.269661 3.051279 1.733625 -0.978582 -0.170288 0.115670
-0.159034 2.801279 1.768986 -0.153907 -0.978970 -0.133908
0.528500 3.074716 1.444207 0.114590 -0.166785 -0.979312
0.561844 2.988779 1.533209 0.231354 -0.768315 -0.596797
-0.507156 2.988779 2.150397 -0.632518 -0.768315 -0.098040
-0.567563 3.074716 2.077019 -0.905404 -0.166785 -0.390419
0.791396 3.168466 1.508930 0.589000 0.069819 -0.805111
0.730784 3.012216 1.607072 0.312094 -0.769427 -0.557297
-0.527659 3.012216 2.333635 -0.638680 -0.769427 -0.008367
-0.642959 3.168466 2.337055 -0.991747 0.069819 0.107533
0.959084 3.020029 1.736875 0.974145 -0.213804 -0.073006
0.830253 2.957529 1.748108 0.348703 -0.860618 -0.371138
-0.455253 2.957529 2.490295 -0.495766 -0.860618 0.116417
-0.529397 3.020029 2.596250 -0.550297 -0.213804 0.807131
0.857877 2.988779 1.858454 0.858178 -0.214415 0.466429
0.802424 2.887216 1.809281 0.279641 -0.939250 -0.199024
-0.388361 2.887216 2.496781 -0.312180 -0.939250 0.142665
-0.373502 2.988779 2.569392 -0.025150 -0.214416 0.976419
0.727028 2.926279 2.069317 0.909585 -0.168331 0.379894
0.652324 2.816904 2.049300 0.256867 -0.948889 -0.183384
-0.105449 2.816904 2.486800 -0.287249 -0.948889 0.130762
-0.125466 2.926279 2.561504 -0.125795 -0.168331 0.977671
0.656305 2.879404 2.290571 0.677111 -0.168949 0.716224
0.590945 2.777841 2.192990 0.341339 -0.938667 0.048909
0.049680 2.777841 2.505490 -0.128313 -0.938667 0.320062
0.101507 2.879404 2.610883 0.281713 -0.168949 0.944507
0.494691 2.855966 2.338773 -0.129817 -0.193004 0.972572
0.484505 2.762216 2.227380 -0.062719 -0.973509 0.219879
0.132682 2.762216 2.430505 0.221781 -0.973509 0.055623
0.224059 2.855966 2.495023 0.907181 -0.193004 0.373861
0.300220 2.863779 2.189439 -0.394239 -0.182586 0.900688
0.302799 2.770029 2.115781 -0.077535 -0.996922 0.011613
0.126888 2.770029 2.217344 0.048825 -0.996922 -0.061340
0.191967 2.863779 2.251939 0.977138 -0.182585 0.108923
0.214844 2.871591 2.166562 0.479767 -0.281594 0.830980
0.175781 2.793466 2.098904 -0.012044 -0.999710 -0.020861
0.349114 2.840341 2.070999 0.127859 -0.942317 -0.309338
0.450881 2.855966 2.075392 0.167555 -0.955725 -0.241898
0.017869 2.855966 2.325392 -0.293268 -0.955725 0.024158
0.064949 2.840341 2.235062 -0.331824 -0.942317 -0.043940
0.522446 2.871591 2.043095 0.066803 -0.986251 -0.151151
-0.045883 2.871591 2.371220 -0.164302 -0.986251 -0.017721
0.590870 2.895029 1.958484 0.166110 -0.980178 -0.107972
-0.153370 2.895029 2.388172 -0.176562 -0.980178 0.089870
0.708468 2.949716 1.818420 0.055666 -0.920690 -0.386306
-0.333468 2.949716 2.419983 -0.362383 -0.920690 -0.144945
0.703235 2.965341 1.731231 0.208206 -0.907297 -0.365325
-0.406360 2.965341 2.371856 -0.420484 -0.907297 -0.002350
0.635016 2.965341 1.644322 0.279386 -0.873345 -0.399014
-0.447516 2.965341 2.269322 -0.485249 -0.873345 0.042449
0.457497 2.941904 1.602475 0.173379 -0.824531 -0.538598
-0.394997 2.941904 2.094662 -0.553129 -0.824531 -0.119149
0.332572 2.910654 1.620474 0.098845 -0.887507 -0.450067
-0.316947 2.910654 1.995474 -0.439192 -0.887507 -0.139431
0.212395 2.863779 1.834196 -0.353708 -0.935320 0.008188
0.023438 2.887216 1.835037 0.006735 -0.999909 0.011665
-0.071770 2.863779 1.998258 0.183945 -0.935320 -0.302226
0.260597 2.848154 1.995809 -0.074695 -0.979673 -0.186175
0.044091 2.848154 2.120809 -0.123884 -0.979673 -0.157775
0.105469 2.848154 1.977119 -0.111738 -0.974710 -0.193536
0.220488 2.855966 1.910713 -0.240531 -0.966292 -0.091787
-0.009550 2.855966 2.043525 0.040776 -0.966292 -0.254200
-0.387280 2.918466 0.998654 -0.227759 -0.910919 -0.344024
-0.445312 2.926279 1.023138 -0.165635 -0.943536 -0.286888
-0.495533 2.918466 1.061154 -0.184054 -0.910919 -0.369257
-0.316481 2.902841 1.011905 -0.084321 -0.942235 -0.324166
-0.519456 2.902841 1.129093 -0.238575 -0.942235 -0.235107
-0.264653 2.879404 1.117299 0.049705 -0.972918 -0.225743
-0.454097 2.879404 1.226674 -0.220352 -0.972918 -0.069826
-0.154998 2.863779 1.369728 0.121522 -0.990340 -0.066783
-0.242263 2.879404 1.140456 0.127193 -0.981914 -0.140239
-0.445237 2.879404 1.257643 -0.185047 -0.981914 0.040033
-0.290314 2.863779 1.447853 -0.118597 -0.990340 0.071850
-0.070107 2.871591 1.501138 0.212504 -0.750568 -0.625691
-0.164062 2.871591 1.510278 -0.228790 -0.889168 -0.396276
-0.222656 2.863779 1.408790 -0.002057 -0.999992 -0.003563
-0.218955 2.871591 1.587075 -0.648116 -0.750569 -0.128811
-0.339844 2.879404 1.205815 -0.017116 -0.999414 -0.029646
-0.382812 2.879404 1.131391 -0.212871 -0.904845 -0.368704
-0.005028 2.863779 1.535733 0.442592 -0.588556 -0.676545
0.001738 2.816904 1.531827 0.694245 -0.315888 -0.646713
-0.055529 2.832529 1.510763 0.137243 -0.359661 -0.922935
-0.217909 2.832529 1.604513 -0.867906 -0.359661 -0.342611
-0.228300 2.816904 1.664639 -0.907193 -0.315888 0.277877
-0.221534 2.863779 1.660733 -0.807201 -0.588557 0.045023
0.013737 2.871591 1.615110 0.392907 -0.902785 0.174936
0.028315 2.832529 1.624736 0.925707 -0.116776 0.359763
-0.161128 2.832529 1.734111 -0.151290 -0.116776 0.981568
-0.162174 2.871591 1.716673 -0.044954 -0.902785 0.427736
-0.070312 2.871591 1.672657 0.284627 -0.822162 0.492988
-0.028671 2.832529 1.666658 0.209446 -0.149186 0.966373
-0.096329 2.832529 1.705720 0.732180 -0.149185 0.664572
-0.097656 2.863779 1.625296 0.379628 -0.650791 0.657536
-0.093750 2.816904 1.632062 0.392552 -0.619365 0.679919
-0.160156 2.832529 1.517043 -0.428719 -0.514590 -0.742562
-0.057342 2.809091 1.538873 -0.090971 -0.795790 -0.598701
-0.144531 2.809091 1.544107 -0.264281 -0.848895 -0.457748
-0.192658 2.809091 1.616998 -0.473006 -0.795789 -0.378134
-0.101562 2.785654 1.618531 0.056786 -0.993530 0.098357
-0.033624 2.801279 1.642454 0.128390 -0.773442 0.620728
-0.114814 2.801279 1.689329 0.473371 -0.773442 0.421553
0.003065 2.801279 1.612251 0.554883 -0.799989 0.228304
-0.159315 2.801279 1.706001 -0.079724 -0.799989 0.594694
-0.018560 2.785654 1.543546 0.279623 -0.883841 -0.375015
-0.208003 2.785654 1.652921 -0.464584 -0.883841 0.054653
0.020989 2.902841 1.502670 0.658281 -0.668575 -0.345939
-0.263176 2.902841 1.666733 -0.628733 -0.668575 0.397118
-0.000636 2.902841 1.433965 0.631026 -0.749580 -0.199841
-0.311864 2.902841 1.613653 -0.488580 -0.749580 0.446564
0.067022 3.059091 1.394903 0.975341 -0.116055 -0.187727
-0.379522 3.059091 1.652715 -0.650246 -0.116055 0.750807
0.077975 3.059091 1.460748 0.966509 -0.107911 -0.232843
-0.327975 3.059091 1.695123 -0.684902 -0.107911 0.720600
-0.386719 2.895029 1.124626 -0.451557 -0.429401 -0.782119
-0.289904 2.887216 1.104814 -0.406311 -0.780166 -0.475660
-0.452284 2.887216 1.198564 -0.208778 -0.780166 -0.589706
-0.328966 2.902841 1.037156 -0.532396 -0.757210 0.378400
-0.491346 2.902841 1.130906 0.593902 -0.757210 -0.271869
-0.392999 2.926279 1.019998 -0.048355 -0.752132 0.657237
-0.474189 2.926279 1.066873 0.593361 -0.752132 0.286741
-0.437500 2.926279 1.036670 0.323352 -0.762741 0.560062
-0.385186 2.980966 1.033530 -0.046152 -0.817158 0.574563
-0.429688 2.980966 1.050201 0.264440 -0.848697 0.458023
-0.466376 2.980966 1.080405 0.520661 -0.817159 0.247313
-0.325060 2.973154 1.043921 -0.527089 -0.728993 0.436745
-0.487440 2.973154 1.137671 0.641777 -0.728993 -0.238100
-0.293810 2.949716 1.098048 -0.799240 -0.487424 -0.351615
-0.456190 2.949716 1.191798 0.095112 -0.487424 -0.867970
-0.390625 2.957529 1.117860 -0.349426 -0.715266 -0.605224
0.240505 2.840341 1.836009 -0.045258 -0.997991 -0.044329
0.258223 2.832529 1.897948 0.097985 -0.982222 -0.160120
-0.084255 2.840341 2.023509 -0.015761 -0.997991 -0.061359
-0.039473 2.832529 2.069823 -0.187660 -0.982222 0.004797
0.304051 2.832529 1.961700 0.149818 -0.965662 -0.212252
-0.007176 2.832529 2.141387 -0.258725 -0.965662 0.023620
0.370177 2.832529 2.013733 0.099649 -0.983017 -0.154106
0.004823 2.832529 2.224670 -0.183284 -0.983016 0.009245
0.250896 2.832529 1.775882 -0.066857 -0.987669 -0.141566
-0.141521 2.832529 2.002445 -0.089172 -0.987668 -0.128684
0.356010 2.871591 1.661069 0.069426 -0.957681 -0.279335
-0.293510 2.871591 2.036069 -0.276624 -0.957680 -0.079543
0.463496 2.895029 1.644117 0.226264 -0.957345 -0.179710
-0.361934 2.895029 2.120679 -0.268766 -0.957345 0.106096
0.598327 2.934091 1.674525 0.212254 -0.949677 -0.230349
-0.403015 2.934091 2.252650 -0.305616 -0.949678 0.068643
0.651968 2.926279 1.751809 0.129156 -0.980181 -0.150215
-0.362906 2.926279 2.337746 -0.194668 -0.980181 0.036745
0.662921 2.918466 1.817654 0.282330 -0.951331 -0.123526
-0.311358 2.918466 2.380154 -0.248141 -0.951331 0.182742
0.564573 2.840341 1.928562 0.094405 -0.978643 -0.182609
-0.166136 2.840341 2.350437 -0.205346 -0.978643 -0.009546
0.505774 2.855966 1.998594 0.199944 -0.979694 0.014939
-0.076087 2.855966 2.334531 -0.087034 -0.979693 0.180627
0.447741 2.840341 2.023078 0.176716 -0.982453 -0.059644
-0.025866 2.840341 2.296515 -0.140011 -0.982453 0.123219
0.382662 2.855966 1.988482 0.241903 -0.775657 -0.582957
0.442788 2.848154 1.998874 0.093703 -0.887932 -0.450330
-0.023287 2.855966 2.222857 -0.625808 -0.775657 -0.081984
-0.044351 2.848154 2.280124 -0.436848 -0.887932 -0.144015
0.494055 2.863779 1.978296 -0.245797 -0.868724 -0.430002
-0.087805 2.863779 2.314234 -0.249494 -0.868724 -0.427868
0.553901 2.863779 1.925702 -0.502362 -0.632163 -0.589917
-0.163276 2.863779 2.339765 -0.259702 -0.632163 -0.730017
0.628045 2.934091 1.819747 -0.476318 -0.763348 -0.436373
-0.292107 2.934091 2.350997 -0.139751 -0.763348 -0.630689
0.620999 2.941904 1.760668 -0.371658 -0.926016 0.066065
-0.339748 2.941904 2.315355 0.243042 -0.926016 -0.288832
0.579076 2.941904 1.703682 -0.108668 -0.940636 0.321551
-0.368139 2.941904 2.250557 0.332806 -0.940636 0.066667
0.457777 2.910654 1.665461 0.198844 -0.836499 0.510617
-0.340590 2.910654 2.126398 0.342785 -0.836499 0.427513
0.367728 2.887216 1.681366 0.435699 -0.775527 0.456863
-0.281791 2.887216 2.056366 0.177804 -0.775528 0.605757
0.272241 2.855966 1.781601 0.648039 -0.710794 0.273527
-0.147241 2.855966 2.023789 -0.087138 -0.710795 0.697981
0.261849 2.863779 1.841728 0.744114 -0.662471 -0.086178
-0.089974 2.863779 2.044853 -0.446689 -0.662471 0.601333
0.317583 2.855966 1.953887 0.539708 -0.630269 -0.558101
-0.020708 2.855966 2.149199 -0.753183 -0.630269 0.188350
0.282427 2.863779 1.892995 0.704818 -0.592796 -0.389647
-0.055864 2.863779 2.088307 -0.689852 -0.592796 0.415568
0.325190 3.004404 2.138938 -0.005910 -0.044824 0.998977
0.203125 3.012216 2.146265 0.439707 -0.476056 0.761596
0.135747 3.004404 2.248313 0.868095 -0.044824 0.494371
0.501177 2.996591 2.271881 -0.158134 0.715803 0.680161
0.162886 2.996591 2.467193 0.668104 0.715803 0.203133
0.634680 3.020029 2.221866 0.427013 0.746435 0.510387
0.052820 3.020029 2.557803 0.228502 0.746435 0.624997
0.696825 3.059091 2.032628 0.724002 0.264204 0.637196
-0.142137 3.059091 2.517003 0.189827 0.264203 0.945602
0.815189 3.121591 1.847016 0.758768 0.224929 0.611292
-0.362064 3.121591 2.526704 0.150011 0.224928 0.962759
0.893239 3.152841 1.747827 0.940443 0.304862 0.150422
-0.486989 3.152841 2.544703 -0.339952 0.304861 0.889659
0.751848 3.238779 1.549806 0.660071 0.153318 -0.735391
-0.587785 3.238779 2.323243 -0.966903 0.153318 0.203942
0.520968 3.199716 1.493661 0.094040 0.097183 -0.990814
-0.520968 3.199716 2.095223 -0.905090 0.097183 -0.413966
0.332011 3.145029 1.494502 -0.065744 0.101602 -0.992650
-0.425761 3.145029 1.932002 -0.826789 0.101602 -0.553261
-0.285156 3.293466 1.300537 -0.158899 0.948158 -0.275221
-0.242188 3.332529 1.374961 -0.402555 0.593126 -0.697245
-0.051417 3.355966 1.346010 0.335480 0.359082 -0.870927
-0.161278 3.254404 1.265100 0.165534 0.906560 -0.388262
-0.362645 3.355966 1.525697 -0.921984 0.359082 -0.144929
-0.377784 3.254404 1.390100 -0.419012 0.906560 -0.050774
-0.402344 3.270029 1.097562 -0.148904 0.954626 -0.257910
-0.257121 3.246591 1.067845 0.022544 0.975330 -0.219597
-0.500691 3.246591 1.208470 -0.201449 0.975330 -0.090275
-0.488281 3.152841 0.948714 -0.425406 0.525471 -0.736825
-0.330574 3.176279 0.893746 -0.297995 0.632766 -0.714707
-0.614739 3.176279 1.057809 -0.469957 0.632766 -0.615425
-0.172867 3.215341 0.838778 0.249856 0.684800 -0.684559
-0.741196 3.215341 1.166903 -0.717773 0.684800 -0.125898
-0.105133 3.230966 1.034221 0.535065 0.795336 -0.284861
-0.605804 3.230966 1.323283 -0.514229 0.795336 0.320950
-0.033494 3.223154 1.236429 0.667897 0.629901 -0.396407
-0.466506 3.223154 1.486429 -0.677247 0.629901 0.380213
0.027193 3.207529 1.372792 0.830688 0.279451 -0.481523
-0.378756 3.207529 1.607167 -0.832355 0.279451 0.478636
0.048818 3.184091 1.441497 0.727649 -0.000173 -0.685950
0.069396 3.145029 1.492764 0.726004 -0.224672 -0.649954
-0.295958 3.145029 1.703702 -0.925879 -0.224672 0.303761
-0.330068 3.184091 1.660247 -0.957874 -0.000173 0.287187
0.089974 3.113779 1.544031 0.427778 -0.173187 -0.887137
-0.261849 3.113779 1.747156 -0.982172 -0.173187 -0.073101
0.035156 4.441904 1.855335 -0.150226 0.953797 -0.260199
0.318274 4.277841 1.673834 0.204897 0.845866 -0.492471
0.223477 4.152841 1.494016 0.121740 0.548314 -0.827364
-0.097656 4.285654 1.625296 -0.348336 0.717390 -0.603335
-0.371915 4.152841 1.837766 -0.777388 0.548314 -0.308252
-0.263587 4.277841 2.009772 -0.528942 0.845866 -0.068789
0.100851 3.879404 1.375372 0.038775 0.216237 -0.975571
-0.191406 3.965341 1.462917 -0.470491 0.338457 -0.814914
-0.413351 3.879404 1.672247 -0.864257 0.216237 -0.454205
-0.012635 3.449716 1.350682 0.105836 0.018542 -0.994211
-0.230469 3.426279 1.395258 -0.493146 0.165005 -0.854155
-0.377990 3.449716 1.561620 -0.913930 0.018542 -0.405449
0.612550 3.543466 1.386660 0.271903 -0.073617 -0.959505
0.854662 3.559091 1.571635 0.744451 -0.078726 -0.663020
-0.659425 3.543466 2.121035 -0.966907 -0.073618 -0.244277
-0.620287 3.559091 2.423198 -0.946417 -0.078726 0.313204
0.281250 4.465341 2.281581 0.157041 0.949396 0.272003
0.617934 4.316904 1.942859 0.491123 0.869276 -0.056195
-0.180434 4.316904 2.403797 -0.294228 0.869276 0.397228
0.449219 3.324716 2.572512 0.413338 -0.562678 0.715923
0.818199 3.379404 2.305354 0.766181 -0.498973 0.404960
0.857262 3.684091 2.373013 0.817018 -0.034875 0.575556
0.492188 3.691904 2.646936 0.499865 -0.023215 0.865792
0.072426 3.684091 2.826138 0.089937 -0.034875 0.995337
0.033363 3.379404 2.758479 -0.032384 -0.498973 0.866012
0.826012 3.996591 2.318886 0.770387 0.416571 0.482672
0.449219 4.160654 2.572512 0.416277 0.553943 0.721013
0.041176 3.996591 2.772011 0.032813 0.416571 0.908511
0.832347 3.277841 1.782984 0.974925 -0.156548 0.158156
0.774594 3.332529 1.870454 0.797718 -0.414958 0.437556
-0.426097 3.277841 2.509546 -0.350495 -0.156548 0.923388
-0.321469 3.332529 2.503266 -0.019924 -0.414958 0.909623
0.971364 3.488779 1.883144 0.913687 -0.396886 0.087501
0.906360 3.559091 2.083054 0.904872 -0.333565 0.264463
-0.408864 3.488779 2.680019 -0.381066 -0.396886 0.835027
-0.203235 3.559091 2.723679 -0.223404 -0.333565 0.915874
0.998708 3.730966 1.930505 0.999320 0.030123 0.021243
0.929798 3.809091 2.123649 0.953741 0.061193 0.294337
-0.381520 3.730966 2.727380 -0.481263 0.030123 0.876058
-0.179798 3.809091 2.764274 -0.221967 0.061193 0.973132
0.959645 3.973154 1.862846 0.910326 0.376899 -0.171036
0.894641 4.059091 2.062756 0.826762 0.543842 0.143872
-0.420583 3.973154 2.659721 -0.603284 0.376899 0.702848
-0.214954 4.059091 2.703381 -0.288784 0.543843 0.787933
0.802629 4.051279 1.637761 0.529151 0.779393 -0.335476
0.698563 4.199716 1.770013 0.499765 0.810143 -0.306436
-0.370438 4.199716 2.387200 -0.515264 0.810143 0.279591
-0.537004 4.051279 2.411199 -0.555107 0.779394 0.290520
0.660902 3.184091 2.017283 0.753179 -0.401208 0.521299
-0.137465 3.184091 2.478221 0.074868 -0.401208 0.912922
0.285156 3.043466 2.288347 0.310195 -0.784294 0.537273
0.904397 3.660654 1.642153 0.842358 -0.006176 -0.538884
-0.584084 3.660654 2.501528 -0.887866 -0.006176 0.460061
0.874474 3.816904 1.668450 0.928552 -0.322017 -0.184651
-0.546349 3.816904 2.488763 -0.624188 -0.322017 0.711824
0.274464 3.824716 1.410453 0.102725 0.146349 -0.983885
0.265885 3.465341 1.442469 0.094408 -0.160026 -0.982588
-0.469777 3.824716 1.840140 -0.903432 0.146349 -0.402980
-0.437760 3.465341 1.848719 -0.898150 -0.160026 -0.409534
0.451703 3.777841 1.389314 -0.242338 0.055216 -0.968619
-0.576703 3.777841 1.983064 -0.717680 0.055216 -0.694181
0.550891 4.043466 1.467364 0.039808 0.676769 -0.735118
0.431200 4.160654 1.572552 0.223438 0.676630 -0.701603
-0.407762 4.160654 2.056927 -0.719325 0.676630 -0.157299
-0.558704 4.043466 2.107989 -0.656535 0.676770 -0.333084
1.124604 3.926279 1.695439 0.450911 -0.486295 0.748463
0.974429 3.848154 1.700952 0.120182 -0.609404 0.783698
0.978055 3.832529 1.644732 0.365933 -0.886195 -0.284167
1.086588 3.902841 1.645218 0.435720 -0.837633 -0.329422
-0.618680 3.832529 2.566607 -0.429063 -0.886195 0.174824
-0.568179 3.848154 2.591578 0.618611 -0.609404 0.495931
-0.648042 3.926279 2.718876 0.422732 -0.486295 0.764732
-0.672526 3.902841 2.660843 -0.503148 -0.837633 0.212634
1.247155 4.004404 1.579578 0.228381 -0.943726 -0.239216
1.322906 4.035654 1.617033 0.742376 -0.359998 0.565048
-0.809655 4.004404 2.767078 -0.321357 -0.943726 0.078176
-0.815094 4.035654 2.851408 0.118158 -0.359998 0.925441
1.240595 4.020029 1.411965 -0.148859 -0.988701 -0.017667
1.330644 4.035654 1.396060 0.773296 -0.586956 -0.239781
-0.951532 4.020029 2.677590 0.059130 -0.988701 -0.137750
-1.010331 4.035654 2.747622 -0.594305 -0.586956 0.549804
1.087765 4.020029 1.256632 0.116185 -0.961442 0.249261
1.136939 4.043466 1.201178 0.333041 -0.545015 -0.769443
-1.009640 4.020029 2.467569 0.157774 -0.961442 0.225249
-1.082251 4.043466 2.482428 -0.832877 -0.545015 -0.096300
0.873557 3.918466 1.244988 0.563118 -0.826328 -0.008998
0.849073 3.941904 1.186955 0.018843 -0.411664 -0.911141
-0.912620 3.918466 2.276238 -0.289352 -0.826328 0.483175
-0.950636 3.941904 2.226017 -0.798493 -0.411664 -0.439252
0.682021 3.746591 1.319487 0.471944 -0.871266 0.134772
0.599504 3.738779 1.285939 -0.362087 -0.760249 -0.539365
-0.752334 3.746591 2.147612 -0.119256 -0.871266 0.476101
-0.740129 3.738779 2.059376 -0.286060 -0.760249 -0.583259
0.899854 3.980966 1.274911 0.332716 -0.249701 0.909368
0.752819 3.824716 1.332738 0.641200 -0.416392 0.644578
-0.776257 3.824716 2.215551 0.237621 -0.416392 0.877584
-0.899854 3.980966 2.313973 0.621177 -0.249702 0.742825
1.075280 4.059091 1.281882 -0.335792 -0.039926 0.941090
-0.981530 4.059091 2.469382 0.982903 -0.039926 0.179741
1.194000 4.059091 1.393761 -0.896309 -0.169828 0.409621
-0.944000 4.059091 2.628136 0.802896 -0.169828 -0.571416
1.194561 4.051279 1.519732 -0.508476 -0.618809 -0.598772
-0.835186 4.051279 2.691607 -0.264313 -0.618809 -0.739739
1.058198 3.973154 1.580420 0.154731 -0.504416 -0.849484
-0.714448 3.973154 2.603857 -0.813040 -0.504416 -0.290741
0.971008 3.902841 1.585653 0.319007 -0.469810 -0.823112
-0.666321 3.902841 2.530965 -0.872339 -0.469810 -0.135287
0.610737 3.785654 1.414770 0.687980 -0.661488 -0.298523
0.629222 3.684091 1.431161 0.502100 0.139986 -0.853404
-0.634175 3.785654 2.133520 -0.602518 -0.661489 0.446548
-0.629222 3.684091 2.157723 -0.990120 0.139986 0.008130
0.875240 3.824716 1.622903 0.512639 -0.616606 -0.597493
-0.586178 3.824716 2.466652 -0.773764 -0.616606 0.145212
0.695833 3.887216 1.374660 0.797008 -0.572027 0.193815
-0.711458 3.887216 2.187160 -0.230655 -0.572028 0.787135
0.738521 3.887216 1.386099 0.734058 -0.463920 -0.495921
0.641987 3.801279 1.468896 0.710164 -0.348043 -0.611991
-0.602925 3.801279 2.187646 -0.885082 -0.348043 0.309026
-0.722896 3.887216 2.229849 -0.796509 -0.463921 0.387752
0.703160 3.887216 1.496726 0.762375 -0.510846 -0.397267
0.753380 3.887216 1.458710 0.859468 -0.379558 0.342419
-0.609410 3.887216 2.254538 -0.725230 -0.510846 0.461603
-0.667443 3.887216 2.279022 -0.133189 -0.379557 0.915531
0.809881 3.887216 1.525321 0.357945 -0.322399 -0.876319
0.791676 3.824716 1.571916 0.543140 -0.244619 -0.803219
-0.588551 3.824716 2.368791 -0.967178 -0.244619 0.068764
-0.638006 3.887216 2.361259 -0.937887 -0.322398 -0.128169
0.892398 3.879404 1.558870 0.332440 -0.471434 -0.816844
-0.650210 3.879404 2.449495 -0.873627 -0.471434 -0.120520
0.888491 3.934091 1.552104 0.360142 -0.605191 -0.709959
0.969962 3.957529 1.568215 0.346054 -0.654455 -0.672262
-0.654116 3.934091 2.442729 -0.794914 -0.605190 -0.043088
-0.680899 3.957529 2.521340 -0.755222 -0.654455 -0.036440
0.816646 3.934091 1.521415 0.281929 -0.701514 -0.654518
-0.644771 3.934091 2.365165 -0.707794 -0.701514 -0.083101
0.709926 3.934091 1.492819 0.804391 -0.567994 -0.174176
-0.616176 3.934091 2.258444 -0.553036 -0.567993 0.609537
0.756240 3.934091 1.448038 0.572165 -0.813828 0.101549
-0.678115 3.934091 2.276163 -0.198139 -0.813828 0.546283
0.745287 3.934091 1.382192 0.508171 -0.851020 0.132388
-0.729662 3.934091 2.233755 -0.139434 -0.851020 0.506284
0.695833 3.934091 1.374660 0.746370 -0.664969 -0.027338
-0.711458 3.934091 2.187160 -0.396861 -0.664970 0.632705
0.756726 3.879404 1.339504 0.432005 -0.302328 0.849688
-0.772351 3.879404 2.222317 0.519848 -0.302328 0.798971
1.063917 4.027841 1.559075 0.250861 -0.807180 -0.534349
-0.735792 4.027841 2.598138 -0.588191 -0.807180 -0.049923
1.200280 4.098154 1.498388 -0.506489 -0.773832 -0.380332
-0.856530 4.098154 2.685888 -0.076132 -0.773832 -0.628798
1.210391 4.105966 1.375276 -0.692398 -0.661826 0.287352
-0.968204 4.105966 2.633089 0.595053 -0.661826 -0.455958
1.091671 4.098154 1.263397 -0.241633 -0.711477 0.659859
-1.005734 4.098154 2.474335 0.692271 -0.711477 0.120670
0.906620 4.035654 1.271005 0.445626 -0.666856 0.597261
-0.906620 4.035654 2.317880 0.294429 -0.666856 0.684554
0.843149 3.949716 1.379819 0.391946 -0.915368 -0.092083
0.825991 3.941904 1.443851 0.174354 -0.980117 -0.094721
-0.780649 3.949716 2.317319 -0.275720 -0.915368 0.293394
-0.716616 3.941904 2.334476 -0.169208 -0.980117 0.103634
0.928525 3.980966 1.402695 0.357174 -0.901478 -0.244467
0.918134 3.965341 1.462821 0.284267 -0.944635 -0.163883
-0.803525 3.980966 2.402695 -0.390302 -0.901478 0.187088
-0.746259 3.965341 2.423759 -0.284060 -0.944635 0.164241
1.007136 3.996591 1.429478 0.260202 -0.935560 -0.238795
0.996745 3.988779 1.489604 0.322079 -0.943511 -0.077789
-0.819636 3.996591 2.484166 -0.336904 -0.935560 0.105944
-0.762370 3.988779 2.505229 -0.228407 -0.943511 0.240034
1.066216 4.004404 1.422432 0.371232 -0.899600 -0.230015
1.077168 4.004404 1.488277 0.458482 -0.885146 0.079436
-0.855278 4.004404 2.531807 -0.384815 -0.899600 0.206489
-0.803731 4.004404 2.574215 -0.160448 -0.885146 0.436775
0.620848 3.941904 1.291658 -0.491721 0.528337 -0.692149
0.856886 4.105966 1.200487 -0.385699 0.714016 -0.584309
-0.745848 3.941904 2.080720 -0.353558 0.528337 -0.771918
-0.942823 4.105966 2.239549 -0.313177 0.714017 -0.626180
1.164002 4.145029 1.185553 0.287283 0.617369 -0.732341
-1.109315 4.145029 2.498053 -0.777868 0.617369 -0.117376
1.332457 4.113779 1.367950 0.842518 0.374108 -0.387565
-1.035582 4.113779 2.735137 -0.756900 0.374108 0.535860
1.316907 4.160654 1.575392 0.574893 0.721361 0.386183
-0.848157 4.160654 2.825391 0.046998 0.721361 0.690963
1.105073 4.098154 1.661609 -0.082396 0.716619 0.692581
-0.667573 4.098154 2.685047 0.640991 0.716619 0.274934
0.935647 3.996591 1.696280 -0.282506 0.492714 0.823057
-0.552834 3.996591 2.555655 0.854042 0.492714 0.166871
4 0 1 2 3
4 4 5 6 7
4 3 2 8 9
4 10 4 7 11
4 2 12 13 8
4 14 15 4 10
4 1 16 12 2
4 15 17 5 4
4 16 18 19 12
4 20 21 17 15
4 12 19 22 13
4 23 20 15 14
4 19 24 25 22
4 26 27 20 23
4 18 28 24 19
4 27 29 21 20
4 28 30 31 24
4 32 33 29 27
4 24 31 34 25
4 35 32 27 26
4 31 36 37 34
4 38 39 32 35
4 30 40 36 31
4 39 41 33 32
4 40 42 43 36
4 44 45 41 39
4 36 43 46 37
4 47 44 39 38
4 43 3 9 46
4 11 7 44 47
4 42 0 3 43
4 7 6 45 44
4 0 42 48 49
4 50 45 6 51
4 42 40 52 48
4 53 41 45 50
4 40 30 54 52
4 55 33 41 53
4 30 28 56 54
4 57 29 33 55
4 28 18 58 56
4 59 21 29 57
4 18 16 60 58
4 61 17 21 59
4 16 1 62 60
4 63 5 17 61
4 1 0 49 62
4 51 6 5 63
3 64 62 49
3 51 63 65
3 60 62 64
3 65 63 61
3 64 58 60
3 61 59 65
3 64 56 58
3 59 57 65
3 64 54 56
3 57 55 65
3 64 52 54
3 55 53 65
3 64 48 52
3 53 50 65
3 64 49 48
3 50 51 65
4 66 67 68 69
4 68 70 71 69
4 72 73 67 66
4 70 74 75 71
4 76 77 73 72
4 74 78 79 75
4 80 81 77 76
4 78 82 83 79
4 84 85 81 80
4 82 86 87 83
4 88 89 90 91
4 92 93 94 95
4 89 96 97 90
4 98 99 93 92
4 96 100 101 97
4 102 103 99 98
4 100 104 105 101
4 106 107 103 102
4 104 108 109 105
4 110 111 107 106
4 108 112 113 109
4 114 115 111 110
4 112 116 117 113
4 118 119 115 114
4 116 120 121 117
4 122 123 119 118
4 120 124 125 121
4 126 127 123 122
4 124 128 129 125
4 129 128 127 126
4 130 131 121 125
4 122 132 133 126
4 131 134 117 121
4 118 135 132 122
4 136 113 117 134
4 118 114 137 135
4 138 109 113 136
4 114 110 139 137
4 140 105 109 138
4 110 106 141 139
4 142 101 105 140
4 106 102 143 141
4 144 97 101 142
4 102 98 145 143
4 146 90 97 144
4 98 92 147 145
4 19 91 90 146
4 92 95 20 147
4 19 148 149 91
4 149 150 20 95
4 130 125 129 151
4 129 126 133 152
4 151 129 153 154
4 153 129 152 155
4 149 148 154 153
4 155 150 149 153
4 156 157 68 67
4 68 157 158 70
4 159 156 67 73
4 70 158 160 74
4 161 159 73 77
4 74 160 162 78
4 85 163 164 81
4 165 166 86 82
4 161 77 81 164
4 82 78 162 165
4 167 168 169 163
4 169 168 170 166
4 164 163 169 171
4 169 166 165 171
4 172 161 164 171
4 165 162 172 171
4 173 174 175 167
4 176 177 178 170
4 179 180 174 173
4 177 181 182 178
4 183 184 180 179
4 181 185 183 182
4 186 187 184 183
4 185 187 186 183
4 168 167 175 188
4 176 170 168 188
4 188 175 189 190
4 191 176 188 190
4 187 192 193 184
4 194 192 187 185
4 184 193 195 180
4 196 194 185 181
4 180 195 197 174
4 198 196 181 177
4 174 197 189 175
4 191 198 177 176
4 192 197 195 193
4 196 198 192 194
4 192 190 189 197
4 191 190 192 198
4 183 179 91 149
4 95 182 183 149
4 179 173 199 91
4 200 178 182 95
4 173 167 201 199
4 202 170 178 200
4 167 163 85 201
4 86 166 170 202
4 84 203 201 85
4 202 204 87 86
4 203 205 199 201
4 200 206 204 202
4 88 91 199 205
4 200 95 94 206
4 161 172 207 208
4 207 172 162 209
4 159 161 208 210
4 209 162 160 211
4 156 159 210 212
4 211 160 158 213
4 157 156 212 214
4 213 158 157 214
4 214 212 215 216
4 217 213 214 216
4 212 210 218 215
4 219 211 213 217
4 210 208 220 218
4 221 209 211 219
4 208 207 222 220
4 222 207 209 221
4 222 216 215 220
4 217 216 222 221
3 220 215 218
3 219 217 221
4 154 148 223 224
4 225 150 155 226
4 151 154 224 227
4 226 155 152 228
4 130 151 227 229
4 228 152 133 230
4 148 19 231 223
4 232 20 150 225
4 19 146 233 231
4 234 147 20 232
4 146 144 235 233
4 236 145 147 234
4 144 142 237 235
4 238 143 145 236
4 142 140 239 237
4 240 141 143 238
4 140 138 241 239
4 242 139 141 240
4 138 136 243 241
4 244 137 139 242
4 136 134 245 243
4 246 135 137 244
4 134 131 247 245
4 248 132 135 246
4 131 130 229 247
4 230 133 132 248
4 247 229 249 250
4 251 230 248 252
4 245 247 250 253
4 252 248 246 254
4 243 245 253 255
4 254 246 244 256
4 241 243 255 257
4 256 244 242 258
4 239 241 257 259
4 258 242 240 260
4 237 239 259 261
4 260 240 238 262
4 235 237 261 263
4 262 238 236 264
4 233 235 263 265
4 264 236 234 266
4 231 233 265 267
4 266 234 232 268
4 223 231 267 269
4 268 232 225 270
4 229 227 271 249
4 272 228 230 251
4 227 224 273 271
4 274 226 228 272
4 224 223 269 273
4 270 225 226 274
4 128 124 275 276
4 277 127 128 276
4 124 120 278 275
4 279 123 127 277
4 120 116 280 278
4 281 119 123 279
4 116 112 282 280
4 283 115 119 281
4 112 108 284 282
4 285 111 115 283
4 108 104 286 284
4 287 107 111 285
4 104 100 288 286
4 289 103 107 287
4 100 96 290 288
4 291 99 103 289
4 96 89 292 290
4 293 93 99 291
4 294 295 296 297
4 298 295 294 299
4 300 294 297 301
4 299 294 300 302
4 303 300 301 304
4 302 300 303 305
4 66 69 303 304
4 303 69 71 305
4 72 66 304 306
4 305 71 75 307
4 76 72 306 308
4 307 75 79 309
4 80 76 308 310
4 309 79 83 311
4 308 301 297 310
4 299 302 309 311
4 308 306 304 301
4 305 307 309 302
4 312 310 297 296
4 299 311 313 298
4 84 80 310 312
4 311 83 87 313
4 203 314 315 205
4 316 317 204 206
4 84 312 314 203
4 317 313 87 204
4 88 205 315 318
4 316 206 94 319
4 88 318 292 89
4 293 319 94 93
4 320 321 322 323
4 324 325 320 323
4 323 322 326 327
4 328 324 323 327
4 327 326 329 330
4 331 328 327 330
4 330 329 296 295
4 298 331 330 295
4 312 296 329 314
4 331 298 313 317
4 288 290 332 333
4 334 291 289 335
4 336 337 321 320
4 325 338 336 320
4 339 340 341 342
4 343 344 339 342
4 342 341 345 346
4 347 343 342 346
4 346 345 337 336
4 338 347 346 336
4 284 286 348 349
4 350 287 285 351
4 349 348 352 353
4 354 350 351 355
4 353 352 356 357
4 358 354 355 359
4 357 356 360 361
4 362 358 359 363
4 364 365 361 360
4 363 366 367 362
4 337 345 361 365
4 363 347 338 366
4 345 341 357 361
4 359 343 347 363
4 341 340 353 357
4 355 344 343 359
4 340 368 349 353
4 351 369 344 355
4 282 284 349 368
4 351 285 283 369
4 370 368 340 339
4 344 369 370 339
4 275 278 280 282
4 281 279 277 283
4 275 282 368 370
4 369 283 277 370
3 276 275 370
3 370 277 276
4 286 288 333 348
4 335 289 287 350
4 333 371 352 348
4 354 372 335 350
4 371 373 356 352
4 358 374 372 354
4 364 360 356 373
4 358 362 367 374
4 329 326 375 376
4 377 328 331 378
4 332 376 375 379
4 377 378 334 380
4 290 292 376 332
4 378 293 291 334
4 292 315 314 376
4 317 316 293 378
3 314 329 376
3 378 331 317
3 292 318 315
3 316 319 293
4 364 381 382 365
4 383 384 367 366
4 337 365 382 321
4 383 366 338 325
4 379 375 382 381
4 383 377 380 384
4 326 322 382 375
4 383 324 328 377
3 321 382 322
3 324 383 325
4 385 386 387 388
4 389 390 391 392
4 385 388 393 394
4 395 392 391 396
4 394 393 397 398
4 399 395 396 400
4 398 397 401 402
4 403 399 400 404
4 402 401 405 406
4 407 403 404 408
4 406 405 409 410
4 411 407 408 412
4 405 413 414 409
4 415 416 407 411
4 401 417 413 405
4 416 418 403 407
4 397 419 417 401
4 418 420 399 403
4 393 421 419 397
4 420 422 395 399
4 388 423 421 393
4 422 424 392 395
4 388 387 425 423
4 426 389 392 424
4 332 379 427 428
4 429 380 334 430
4 379 410 409 427
4 411 412 380 429
4 333 332 428 371
4 430 334 335 372
4 373 431 387 386
4 389 432 374 390
4 409 414 433 427
4 434 415 411 429
4 435 436 427 433
4 429 437 438 434
4 439 436 435 440
4 438 437 441 442
4 443 444 436 439
4 437 445 446 441
4 431 444 443 447
4 446 445 432 448
4 387 431 447 425
4 448 432 389 426
4 371 444 431 373
4 432 445 372 374
4 371 428 436 444
4 437 430 372 445
3 428 427 436
3 437 429 430
4 425 447 449 450
4 451 448 426 452
4 447 443 453 449
4 454 446 448 451
4 443 439 455 453
4 456 441 446 454
4 439 440 457 455
4 458 442 441 456
4 440 435 459 457
4 460 438 442 458
4 435 433 461 459
4 462 434 438 460
4 433 414 463 461
4 464 415 434 462
4 423 425 450 465
4 452 426 424 466
4 421 423 465 467
4 466 424 422 468
4 419 421 467 469
4 468 422 420 470
4 417 419 469 471
4 470 420 418 472
4 413 417 471 473
4 472 418 416 474
4 414 413 473 463
4 474 416 415 464
4 457 459 475 476
4 477 460 458 478
4 476 475 479 480
4 481 477 478 482
4 480 479 483 484
4 485 481 482 486
4 484 483 487 488
4 489 485 486 490
4 465 450 484 488
4 486 452 466 490
4 449 480 484 450
4 486 482 451 452
4 449 453 476 480
4 478 454 451 482
4 457 476 453 455
4 454 478 458 456
4 461 463 475 459
4 477 464 462 460
4 473 479 475 463
4 477 481 474 464
4 471 483 479 473
4 481 485 472 474
4 469 487 483 471
4 485 489 470 472
4 467 488 487 469
4 489 490 468 470
3 465 488 467
3 468 490 466
4 406 410 491 492
4 493 412 408 494
4 402 406 492 495
4 494 408 404 496
4 398 402 495 497
4 496 404 400 498
4 394 398 497 499
4 498 400 396 500
4 385 394 499 501
4 500 396 391 502
4 386 385 501 503
4 502 391 390 504
4 501 492 491 503
4 493 494 502 504
4 501 499 495 492
4 496 500 502 494
3 499 497 495
3 496 498 500
4 364 373 386 503
4 390 374 367 504
4 364 503 491 381
4 493 504 367 384
4 379 381 491 410
4 493 384 380 412
