ply
format ascii 1.0
comment Created by Blender 3.3.0 - www.blender.org
element vertex 505
property float x
property float y
property float z
property float nx
property float ny
property float nz
element face 500
property list uchar uint vertex_indices
end_header
0.468750 -0.757812 0.242188 0.977692 -0.209752 -0.011021
0.437500 -0.765625 0.164062 0.727709 -0.205105 -0.654501
0.500000 -0.687500 0.093750 0.604047 -0.612194 -0.510241
0.562500 -0.671875 0.242188 0.802083 -0.597204 -0.003398
-0.500000 -0.687500 0.093750 -0.604047 -0.612194 -0.510241
-0.437500 -0.765625 0.164062 -0.727709 -0.205105 -0.654501
-0.468750 -0.757812 0.242188 -0.977692 -0.209752 -0.011021
-0.562500 -0.671875 0.242188 -0.802083 -0.597204 -0.003398
0.546875 -0.578125 0.054688 0.682955 -0.483552 -0.547494
0.625000 -0.562500 0.242188 0.868432 -0.495797 -0.003285
-0.546875 -0.578125 0.054688 -0.682955 -0.483552 -0.547494
-0.625000 -0.562500 0.242188 -0.868432 -0.495797 -0.003285
0.351562 -0.718750 0.031250 0.098224 -0.652982 -0.750977
0.351562 -0.617188 -0.023438 0.115892 -0.484671 -0.866985
-0.351562 -0.617188 -0.023438 -0.115892 -0.484671 -0.866985
-0.351562 -0.718750 0.031250 -0.098224 -0.652982 -0.750977
0.351562 -0.781250 0.132812 0.037517 -0.259246 -0.965082
-0.351562 -0.781250 0.132812 -0.037517 -0.259246 -0.965082
0.273438 -0.796875 0.164062 -0.655359 -0.300827 -0.692826
0.203125 -0.742188 0.093750 -0.303461 -0.869269 -0.390235
-0.203125 -0.742188 0.093750 0.303461 -0.869269 -0.390235
-0.273438 -0.796875 0.164062 0.655359 -0.300827 -0.692826
0.156250 -0.648438 0.054688 -0.551250 -0.540238 -0.635819
-0.156250 -0.648438 0.054688 0.551250 -0.540238 -0.635819
0.140625 -0.742188 0.242188 -0.694007 -0.719959 -0.003526
0.078125 -0.656250 0.242188 -0.814812 -0.579713 -0.003795
-0.078125 -0.656250 0.242188 0.814812 -0.579713 -0.003795
-0.140625 -0.742188 0.242188 0.694007 -0.719959 -0.003526
0.242188 -0.796875 0.242188 -0.946071 -0.323703 -0.012876
-0.242188 -0.796875 0.242188 0.946071 -0.323703 -0.012876
0.273438 -0.796875 0.328125 -0.662184 -0.288932 0.691398
0.203125 -0.742188 0.390625 -0.455128 -0.719135 0.525075
-0.203125 -0.742188 0.390625 0.455128 -0.719135 0.525075
-0.273438 -0.796875 0.328125 0.662184 -0.288932 0.691398
0.156250 -0.648438 0.437500 -0.529796 -0.571586 0.626583
-0.156250 -0.648438 0.437500 0.529796 -0.571586 0.626583
0.351562 -0.718750 0.453125 0.101875 -0.664668 0.740161
0.351562 -0.617188 0.515625 0.122420 -0.532843 0.837312
-0.351562 -0.617188 0.515625 -0.122420 -0.532843 0.837312
-0.351562 -0.718750 0.453125 -0.101875 -0.664668 0.740161
0.351562 -0.781250 0.359375 0.032096 -0.236864 0.971012
-0.351562 -0.781250 0.359375 -0.032096 -0.236864 0.971012
0.437500 -0.765625 0.328125 0.732058 -0.194936 0.652757
0.500000 -0.687500 0.390625 0.608471 -0.620319 0.494942
-0.500000 -0.687500 0.390625 -0.608471 -0.620319 0.494942
-0.437500 -0.765625 0.328125 -0.732058 -0.194936 0.652757
0.546875 -0.578125 0.437500 0.672211 -0.508449 0.538156
-0.546875 -0.578125 0.437500 -0.672211 -0.508449 0.538156
0.445312 -0.781250 0.335938 0.721991 -0.237443 0.649884
0.476562 -0.773438 0.242188 0.973750 -0.227294 -0.012208
-0.445312 -0.781250 0.335938 -0.721991 -0.237443 0.649884
-0.476562 -0.773438 0.242188 -0.973750 -0.227294 -0.012208
0.351562 -0.804688 0.375000 0.037465 -0.356420 0.933574
-0.351562 -0.804688 0.375000 -0.037465 -0.356420 0.933574
0.265625 -0.820312 0.335938 -0.626347 -0.434778 0.647038
-0.265625 -0.820312 0.335938 0.626347 -0.434778 0.647038
0.226562 -0.820312 0.242188 -0.911274 -0.411616 -0.012292
-0.226562 -0.820312 0.242188 0.911274 -0.411616 -0.012292
0.265625 -0.820312 0.156250 -0.618146 -0.436421 -0.653783
-0.265625 -0.820312 0.156250 0.618146 -0.436421 -0.653783
0.351562 -0.804688 0.117188 0.036935 -0.352425 -0.935111
-0.351562 -0.804688 0.117188 -0.036935 -0.352425 -0.935111
0.445312 -0.781250 0.156250 0.715074 -0.239079 -0.656895
-0.445312 -0.781250 0.156250 -0.715074 -0.239079 -0.656895
0.351562 -0.828125 0.242188 0.183629 -0.982981 -0.005330
-0.351562 -0.828125 0.242188 -0.183629 -0.982981 -0.005330
0.179688 -0.554688 -0.968750 0.157636 -0.159590 -0.974516
0.164062 -0.632812 -0.929688 0.167863 -0.635662 -0.753496
0.000000 -0.640625 -0.945312 0.000000 -0.610272 -0.792192
0.000000 -0.578125 -0.984375 0.000000 -0.209845 -0.977735
-0.164062 -0.632812 -0.929688 -0.167863 -0.635662 -0.753496
-0.179688 -0.554688 -0.968750 -0.157636 -0.159590 -0.974516
0.328125 -0.523438 -0.945312 0.654120 -0.148000 -0.741770
0.234375 -0.632812 -0.914062 0.363017 -0.696975 -0.618421
-0.234375 -0.632812 -0.914062 -0.363017 -0.696975 -0.618421
-0.328125 -0.523438 -0.945312 -0.654120 -0.148000 -0.741770
0.367188 -0.531250 -0.890625 0.969600 -0.195391 -0.147305
0.265625 -0.664062 -0.820312 0.555914 -0.802688 -0.215990
-0.265625 -0.664062 -0.820312 -0.555914 -0.802688 -0.215990
-0.367188 -0.531250 -0.890625 -0.969600 -0.195391 -0.147305
0.351562 -0.570312 -0.695312 0.975792 -0.197049 0.094874
0.250000 -0.687500 -0.703125 0.567858 -0.822466 -0.032966
-0.250000 -0.687500 -0.703125 -0.567858 -0.822466 -0.032966
-0.351562 -0.570312 -0.695312 -0.975792 -0.197049 0.094874
0.312500 -0.570312 -0.437500 0.965121 -0.143515 0.218965
0.210938 -0.710938 -0.445312 0.587214 -0.801652 0.111954
-0.210938 -0.710938 -0.445312 -0.587214 -0.801652 0.111954
-0.312500 -0.570312 -0.437500 -0.965121 -0.143515 0.218965
0.203125 -0.562500 -0.187500 0.905312 -0.170288 -0.389118
0.437500 -0.531250 -0.140625 0.360569 -0.045458 -0.931624
0.398438 -0.671875 -0.046875 0.380889 -0.766193 -0.517563
0.125000 -0.812500 -0.101562 0.066333 -0.978970 -0.192921
-0.398438 -0.671875 -0.046875 -0.380889 -0.766193 -0.517563
-0.437500 -0.531250 -0.140625 -0.360569 -0.045458 -0.931624
-0.203125 -0.562500 -0.187500 -0.905312 -0.170288 -0.389118
-0.125000 -0.812500 -0.101562 -0.066333 -0.978970 -0.192921
0.632812 -0.539062 -0.039062 0.588893 -0.166785 -0.790814
0.617188 -0.625000 0.054688 0.498757 -0.768315 -0.401165
-0.617188 -0.625000 0.054688 -0.498757 -0.768315 -0.401165
-0.632812 -0.539062 -0.039062 -0.588893 -0.166785 -0.790814
0.828125 -0.445312 0.148438 0.912645 0.069819 -0.402747
0.726562 -0.601562 0.203125 0.548930 -0.769427 -0.326586
-0.726562 -0.601562 0.203125 -0.548930 -0.769427 -0.326586
-0.828125 -0.445312 0.148438 -0.912645 0.069819 -0.402747
0.859375 -0.593750 0.429688 0.880137 -0.213804 0.423847
0.742188 -0.656250 0.375000 0.487554 -0.860618 -0.147064
-0.742188 -0.656250 0.375000 -0.487554 -0.860618 -0.147064
-0.859375 -0.593750 0.429688 -0.880137 -0.213804 0.423847
0.710938 -0.625000 0.484375 0.509990 -0.214415 0.833028
0.687500 -0.726562 0.414062 0.341688 -0.939250 -0.032539
-0.687500 -0.726562 0.414062 -0.341688 -0.939250 -0.032539
-0.710938 -0.625000 0.484375 -0.509990 -0.214415 0.833028
0.492188 -0.687500 0.601562 0.597777 -0.168331 0.783790
0.437500 -0.796875 0.546875 0.314145 -0.948889 -0.030382
-0.437500 -0.796875 0.546875 -0.314145 -0.948889 -0.030382
-0.492188 -0.687500 0.601562 -0.597777 -0.168331 0.783790
0.320312 -0.734375 0.757812 0.228283 -0.168949 0.958824
0.312500 -0.835938 0.640625 0.271153 -0.938667 0.213026
-0.312500 -0.835938 0.640625 -0.271153 -0.938667 0.213026
-0.320312 -0.734375 0.757812 -0.228283 -0.168949 0.958824
0.156250 -0.757812 0.718750 -0.598711 -0.193004 0.777364
0.203125 -0.851562 0.617188 -0.164256 -0.973509 0.159061
-0.203125 -0.851562 0.617188 0.164256 -0.973509 0.159061
-0.156250 -0.757812 0.718750 0.598711 -0.193004 0.777364
0.062500 -0.750000 0.492188 -0.791765 -0.182585 0.582899
0.101562 -0.843750 0.429688 -0.072954 -0.996922 -0.028710
-0.101562 -0.843750 0.429688 0.072954 -0.996922 -0.028710
-0.062500 -0.750000 0.492188 0.791765 -0.182585 0.582899
0.000000 -0.742188 0.429688 -0.000000 -0.281594 0.959534
0.000000 -0.820312 0.351562 0.000000 -0.999710 -0.024088
0.164062 -0.773438 0.414062 0.265398 -0.942317 -0.203965
0.250000 -0.757812 0.468750 0.266056 -0.955725 -0.125712
-0.250000 -0.757812 0.468750 -0.266056 -0.955725 -0.125712
-0.164062 -0.773438 0.414062 -0.265398 -0.942317 -0.203965
0.328125 -0.742188 0.476562 0.133429 -0.986251 -0.097499
-0.328125 -0.742188 0.476562 -0.133429 -0.986251 -0.097499
0.429688 -0.718750 0.437500 0.197842 -0.980178 -0.010451
-0.429688 -0.718750 0.437500 -0.197842 -0.980178 -0.010451
0.601562 -0.664062 0.375000 0.241361 -0.920690 -0.306717
-0.601562 -0.664062 0.375000 -0.241361 -0.920690 -0.306717
0.640625 -0.648438 0.296875 0.362974 -0.907297 -0.212277
-0.640625 -0.648438 0.296875 -0.362974 -0.907297 -0.212277
0.625000 -0.648438 0.187500 0.441462 -0.873345 -0.205863
-0.625000 -0.648438 0.187500 -0.441462 -0.873345 -0.205863
0.492188 -0.671875 0.062500 0.419449 -0.824531 -0.379751
-0.492188 -0.671875 0.062500 -0.419449 -0.824531 -0.379751
0.375000 -0.703125 0.015625 0.310636 -0.887508 -0.340347
-0.375000 -0.703125 0.015625 -0.310636 -0.887508 -0.340347
0.164062 -0.750000 0.140625 -0.310414 -0.935320 -0.169763
0.000000 -0.726562 0.046875 0.000000 -0.999909 0.013469
-0.164062 -0.750000 0.140625 0.310414 -0.935320 -0.169763
0.125000 -0.765625 0.304688 0.028399 -0.979673 -0.198580
-0.125000 -0.765625 0.304688 -0.028399 -0.979673 -0.198580
0.000000 -0.765625 0.210938 0.000000 -0.974710 -0.223476
0.132812 -0.757812 0.210938 -0.162413 -0.966292 -0.199756
-0.132812 -0.757812 0.210938 0.162413 -0.966292 -0.199756
0.062500 -0.695312 -0.882812 -0.025233 -0.910919 -0.411813
0.000000 -0.687500 -0.890625 0.000000 -0.943536 -0.331270
-0.062500 -0.695312 -0.882812 0.025233 -0.910919 -0.411813
0.117188 -0.710938 -0.835938 0.089059 -0.942235 -0.322897
-0.117188 -0.710938 -0.835938 -0.089059 -0.942235 -0.322897
0.109375 -0.734375 -0.718750 0.155917 -0.972918 -0.170647
-0.109375 -0.734375 -0.718750 -0.155917 -0.972918 -0.170647
0.078125 -0.750000 -0.445312 0.138633 -0.990339 0.002925
0.117188 -0.734375 -0.687500 0.180272 -0.981914 -0.057854
-0.117188 -0.734375 -0.687500 -0.180272 -0.981914 -0.057854
-0.078125 -0.750000 -0.445312 -0.138633 -0.990340 0.002925
0.085938 -0.742188 -0.289062 0.496879 -0.750569 -0.435612
0.000000 -0.742188 -0.328125 0.000000 -0.889168 -0.457580
0.000000 -0.750000 -0.445312 0.000000 -0.999992 -0.004115
-0.085938 -0.742188 -0.289062 -0.496879 -0.750569 -0.435612
0.000000 -0.734375 -0.679688 0.000000 -0.999414 -0.034232
0.000000 -0.734375 -0.765625 0.000000 -0.904845 -0.425742
0.125000 -0.750000 -0.226562 0.721569 -0.588557 -0.364609
0.132812 -0.796875 -0.226562 0.924591 -0.315888 -0.212948
0.093750 -0.781250 -0.273438 0.580323 -0.359661 -0.730663
-0.093750 -0.781250 -0.273438 -0.580323 -0.359661 -0.730663
-0.132812 -0.796875 -0.226562 -0.924591 -0.315888 -0.212948
-0.125000 -0.750000 -0.226562 -0.721569 -0.588557 -0.364610
0.101562 -0.742188 -0.148438 0.252799 -0.902785 0.347953
0.109375 -0.781250 -0.132812 0.621804 -0.116776 0.774418
-0.109375 -0.781250 -0.132812 -0.621804 -0.116776 0.774418
-0.101562 -0.742188 -0.148438 -0.252799 -0.902785 0.347953
0.000000 -0.742188 -0.140625 0.000000 -0.822162 0.569253
0.039062 -0.781250 -0.125000 -0.301801 -0.149185 0.941626
-0.039062 -0.781250 -0.125000 0.301801 -0.149185 0.941626
0.000000 -0.750000 -0.195312 0.000000 -0.650791 0.759257
0.000000 -0.796875 -0.187500 0.000000 -0.619365 0.785103
0.000000 -0.781250 -0.320312 0.000000 -0.514590 -0.857436
0.078125 -0.804688 -0.250000 0.220568 -0.795789 -0.563976
0.000000 -0.804688 -0.289062 -0.000000 -0.848895 -0.528562
-0.078125 -0.804688 -0.250000 -0.220568 -0.795789 -0.563976
0.000000 -0.828125 -0.203125 0.000000 -0.993530 0.113573
0.046875 -0.812500 -0.148438 -0.199175 -0.773442 0.601762
-0.046875 -0.812500 -0.148438 0.199175 -0.773442 0.601762
0.093750 -0.812500 -0.156250 0.366390 -0.799989 0.475159
-0.093750 -0.812500 -0.156250 -0.366390 -0.799989 0.475159
0.109375 -0.828125 -0.226562 0.429668 -0.883841 -0.184961
-0.109375 -0.828125 -0.226562 -0.429668 -0.883841 -0.184961
0.164062 -0.710938 -0.242188 0.743058 -0.668575 0.029548
-0.164062 -0.710938 -0.242188 -0.743058 -0.668575 0.029548
0.179688 -0.710938 -0.312500 0.646404 -0.749580 0.142446
-0.179688 -0.710938 -0.312500 -0.646404 -0.749580 0.142446
0.257812 -0.554688 -0.312500 0.938533 -0.116055 0.325094
-0.257812 -0.554688 -0.312500 -0.938533 -0.116055 0.325094
0.234375 -0.554688 -0.250000 0.953443 -0.107911 0.281607
-0.234375 -0.554688 -0.250000 -0.953443 -0.107911 0.281607
0.000000 -0.718750 -0.773438 0.000000 -0.429401 -0.903114
0.093750 -0.726562 -0.742188 -0.114046 -0.780166 -0.615089
-0.093750 -0.726562 -0.742188 0.114046 -0.780166 -0.615089
0.093750 -0.710938 -0.820312 -0.650269 -0.757211 0.061506
-0.093750 -0.710938 -0.820312 0.650269 -0.757211 0.061506
0.046875 -0.687500 -0.867188 -0.370495 -0.752132 0.545006
-0.046875 -0.687500 -0.867188 0.370495 -0.752132 0.545006
0.000000 -0.687500 -0.875000 0.000000 -0.762742 0.646703
0.046875 -0.632812 -0.851562 -0.327249 -0.817159 0.474510
0.000000 -0.632812 -0.859375 0.000000 -0.848698 0.528879
-0.046875 -0.632812 -0.851562 0.327249 -0.817159 0.474510
0.093750 -0.640625 -0.812500 -0.674845 -0.728993 0.114689
-0.093750 -0.640625 -0.812500 0.674845 -0.728993 0.114689
0.093750 -0.664062 -0.750000 -0.516354 -0.487424 -0.704128
-0.093750 -0.664062 -0.750000 0.516354 -0.487424 -0.704128
0.000000 -0.656250 -0.781250 0.000000 -0.715266 -0.698852
0.187500 -0.773438 0.156250 -0.017030 -0.997991 -0.061019
0.171875 -0.781250 0.218750 0.164917 -0.982222 -0.089676
-0.187500 -0.773438 0.156250 0.017030 -0.997991 -0.061019
-0.171875 -0.781250 0.218750 -0.164917 -0.982222 -0.089676
0.179688 -0.781250 0.296875 0.235872 -0.965662 -0.108907
-0.179688 -0.781250 0.296875 -0.235872 -0.965662 -0.108907
0.210938 -0.781250 0.375000 0.163352 -0.983016 -0.083636
-0.210938 -0.781250 0.375000 -0.163352 -0.983016 -0.083636
0.226562 -0.781250 0.109375 0.012883 -0.987669 -0.156028
-0.226562 -0.781250 0.109375 -0.012883 -0.987669 -0.156028
0.375000 -0.742188 0.062500 0.199792 -0.957681 -0.207198
-0.375000 -0.742188 0.062500 -0.199792 -0.957681 -0.207198
0.476562 -0.718750 0.101562 0.285806 -0.957345 -0.042501
-0.476562 -0.718750 0.101562 -0.285806 -0.957345 -0.042501
0.578125 -0.679688 0.195312 0.298992 -0.949677 -0.093361
-0.578125 -0.679688 0.195312 -0.298992 -0.949677 -0.093361
0.585938 -0.687500 0.289062 0.186960 -0.980181 -0.065512
-0.585938 -0.687500 0.289062 -0.186960 -0.980181 -0.065512
0.562500 -0.695312 0.351562 0.306267 -0.951331 0.034188
-0.562500 -0.695312 0.351562 -0.306267 -0.951331 0.034188
0.421875 -0.773438 0.398438 0.173062 -0.978643 -0.110941
-0.421875 -0.773438 0.398438 -0.173062 -0.978643 -0.110941
0.335938 -0.757812 0.429688 0.165687 -0.979693 0.112910
-0.335938 -0.757812 0.429688 -0.165687 -0.979693 0.112910
0.273438 -0.773438 0.421875 0.182863 -0.982453 0.036706
-0.273438 -0.773438 0.421875 -0.182863 -0.982453 0.036706
0.234375 -0.757812 0.359375 0.500973 -0.775657 -0.383904
0.281250 -0.765625 0.398438 0.306314 -0.887932 -0.343145
-0.234375 -0.757812 0.359375 -0.500973 -0.775657 -0.383904
-0.281250 -0.765625 0.398438 -0.306314 -0.887932 -0.343145
0.335938 -0.750000 0.406250 0.002134 -0.868725 -0.495290
-0.335938 -0.750000 0.406250 -0.002134 -0.868725 -0.495290
0.414062 -0.750000 0.390625 -0.140100 -0.632163 -0.762064
-0.414062 -0.750000 0.390625 0.140100 -0.632163 -0.762064
0.531250 -0.679688 0.335938 -0.194317 -0.763348 -0.616069
-0.531250 -0.679688 0.335938 0.194317 -0.763348 -0.616069
0.554688 -0.671875 0.281250 -0.354897 -0.926016 -0.128615
-0.554688 -0.671875 0.281250 0.354897 -0.926016 -0.128615
0.546875 -0.671875 0.210938 -0.254885 -0.940636 0.224137
-0.546875 -0.671875 0.210938 0.254885 -0.940636 0.224137
0.460938 -0.703125 0.117188 -0.083104 -0.836499 0.541629
-0.460938 -0.703125 0.117188 0.083104 -0.836499 0.541629
0.375000 -0.726562 0.085938 0.148896 -0.775528 0.613504
-0.375000 -0.726562 0.085938 -0.148896 -0.775528 0.613504
0.242188 -0.757812 0.125000 0.424454 -0.710795 0.560901
-0.242188 -0.757812 0.125000 -0.424454 -0.710795 0.560901
0.203125 -0.750000 0.171875 0.687510 -0.662471 0.297425
-0.203125 -0.750000 0.171875 -0.687510 -0.662471 0.297425
0.195312 -0.757812 0.296875 0.746451 -0.630269 -0.213476
-0.195312 -0.757812 0.296875 -0.746451 -0.630269 -0.213476
0.195312 -0.750000 0.226562 0.805214 -0.592796 0.014965
-0.195312 -0.750000 0.226562 -0.805214 -0.592796 0.014965
0.109375 -0.609375 0.460938 -0.504607 -0.044824 0.862185
0.000000 -0.601562 0.406250 0.000000 -0.476057 0.879415
-0.109375 -0.609375 0.460938 0.504607 -0.044824 0.862185
0.195312 -0.617188 0.664062 -0.477028 0.715803 0.509970
-0.195312 -0.617188 0.664062 0.477028 0.715803 0.509970
0.335938 -0.593750 0.687500 0.114610 0.746435 0.655515
-0.335938 -0.593750 0.687500 -0.114610 0.746435 0.655515
0.484375 -0.554688 0.554688 0.308406 0.264204 0.913828
-0.484375 -0.554688 0.554688 -0.308406 0.264204 0.913828
0.679688 -0.492188 0.453125 0.351466 0.224929 0.908779
-0.679688 -0.492188 0.453125 -0.351466 0.224929 0.908779
0.796875 -0.460938 0.406250 0.739236 0.304862 0.600491
-0.796875 -0.460938 0.406250 -0.739236 0.304862 0.600491
0.773438 -0.375000 0.164062 0.939334 0.153318 -0.306832
-0.773438 -0.375000 0.164062 -0.939334 0.153318 -0.306832
0.601562 -0.414062 0.000000 0.576848 0.097183 -0.811050
-0.601562 -0.414062 0.000000 -0.576848 0.097183 -0.811050
0.437500 -0.468750 -0.093750 0.439390 0.101602 -0.892532
-0.437500 -0.468750 -0.093750 -0.439390 0.101602 -0.892532
0.000000 -0.320312 -0.570312 -0.000000 0.948158 -0.317798
0.000000 -0.281250 -0.484375 0.000000 0.593126 -0.805110
0.179688 -0.257812 -0.414062 0.725997 0.359082 -0.586505
0.125000 -0.359375 -0.539062 0.337488 0.906560 -0.253478
-0.179688 -0.257812 -0.414062 -0.725997 0.359082 -0.586505
-0.125000 -0.359375 -0.539062 -0.337488 0.906560 -0.253478
0.000000 -0.343750 -0.804688 0.000000 0.954626 -0.297809
0.140625 -0.367188 -0.757812 0.129322 0.975330 -0.178904
-0.140625 -0.367188 -0.757812 -0.129322 0.975330 -0.178904
0.000000 -0.460938 -0.976562 0.000000 0.525471 -0.850812
0.164062 -0.437500 -0.945312 0.099282 0.632766 -0.767952
-0.164062 -0.437500 -0.945312 -0.099282 0.632766 -0.767952
0.328125 -0.398438 -0.914062 0.558661 0.684800 -0.467917
-0.328125 -0.398438 -0.914062 -0.558661 0.684800 -0.467917
0.289062 -0.382812 -0.710938 0.605810 0.795336 0.020836
-0.289062 -0.382812 -0.710938 -0.605810 0.795336 0.020836
0.250000 -0.390625 -0.500000 0.776619 0.629901 -0.009350
-0.250000 -0.390625 -0.500000 -0.776619 0.629901 -0.009350
0.234375 -0.406250 -0.351562 0.960159 0.279451 -0.001667
-0.234375 -0.406250 -0.351562 -0.960159 0.279451 -0.001667
0.218750 -0.429688 -0.281250 0.973137 -0.000173 -0.230226
0.210938 -0.468750 -0.226562 0.953715 -0.224672 -0.199874
-0.210938 -0.468750 -0.226562 -0.953715 -0.224672 -0.199874
-0.218750 -0.429688 -0.281250 -0.973137 -0.000173 -0.230226
0.203125 -0.500000 -0.171875 0.814035 -0.173187 -0.554394
-0.203125 -0.500000 -0.171875 -0.814035 -0.173187 -0.554394
0.000000 0.828125 0.070312 0.000000 0.953797 -0.300452
0.335938 0.664062 0.054688 0.423682 0.845866 -0.324044
0.343750 0.539062 -0.148438 0.519112 0.548315 -0.655648
0.000000 0.671875 -0.195312 0.000000 0.717390 -0.696671
-0.343750 0.539062 -0.148438 -0.519112 0.548314 -0.655648
-0.335938 0.664062 0.054688 -0.423682 0.845866 -0.324044
0.296875 0.265625 -0.312500 0.521366 0.216237 -0.825481
0.000000 0.351562 -0.382812 0.000000 0.338457 -0.940982
-0.296875 0.265625 -0.312500 -0.521366 0.216237 -0.825481
0.210938 -0.164062 -0.390625 0.588762 0.018542 -0.808094
0.000000 -0.187500 -0.460938 0.000000 0.165005 -0.986293
-0.210938 -0.164062 -0.390625 -0.588762 0.018542 -0.808094
0.734375 -0.070312 -0.046875 0.715227 -0.073617 -0.695004
0.851562 -0.054688 0.234375 0.976223 -0.078726 -0.201966
-0.734375 -0.070312 -0.046875 -0.715227 -0.073617 -0.695004
-0.851562 -0.054688 0.234375 -0.976223 -0.078726 -0.201966
0.000000 0.851562 0.562500 0.000000 0.949396 0.314081
0.460938 0.703125 0.437500 0.453423 0.869276 0.196895
-0.460938 0.703125 0.437500 -0.453423 0.869276 0.196895
0.000000 -0.289062 0.898438 0.000000 -0.562678 0.826676
0.453125 -0.234375 0.851562 0.461052 -0.498973 0.733796
0.453125 0.070312 0.929688 0.419780 -0.034875 0.906956
0.000000 0.078125 0.984375 0.000000 -0.023215 0.999730
-0.453125 0.070312 0.929688 -0.419780 -0.034875 0.906956
-0.453125 -0.234375 0.851562 -0.461052 -0.498973 0.733796
0.453125 0.382812 0.867188 0.425838 0.416571 0.803200
0.000000 0.546875 0.898438 0.000000 0.553943 0.832554
-0.453125 0.382812 0.867188 -0.425838 0.416571 0.803200
0.726562 -0.335938 0.406250 0.765232 -0.156548 0.624430
0.632812 -0.281250 0.453125 0.472066 -0.414958 0.777794
-0.726562 -0.335938 0.406250 -0.765232 -0.156548 0.624430
-0.632812 -0.281250 0.453125 -0.472066 -0.414958 0.777794
0.796875 -0.125000 0.562500 0.747526 -0.396886 0.532622
0.640625 -0.054688 0.703125 0.651411 -0.333565 0.681468
-0.796875 -0.125000 0.562500 -0.747526 -0.396886 0.532622
-0.640625 -0.054688 0.703125 -0.651411 -0.333565 0.681468
0.796875 0.117188 0.617188 0.854815 0.030123 0.518057
0.640625 0.195312 0.750000 0.678795 0.061193 0.731774
-0.796875 0.117188 0.617188 -0.854815 0.030123 0.518057
-0.640625 0.195312 0.750000 -0.678795 0.061193 0.731774
0.796875 0.359375 0.539062 0.873883 0.376899 0.307042
0.640625 0.445312 0.679688 0.644061 0.543842 0.537978
-0.796875 0.359375 0.539062 -0.873883 0.376899 0.307042
-0.640625 0.445312 0.679688 -0.644061 0.543842 0.537978
0.773438 0.437500 0.265625 0.625997 0.779393 -0.025955
0.617188 0.585938 0.328125 0.586027 0.810143 -0.015499
-0.617188 0.585938 0.328125 -0.586027 0.810143 -0.015499
-0.773438 0.437500 0.265625 -0.625997 0.779394 -0.025955
0.460938 -0.429688 0.523438 0.391623 -0.401209 0.828048
-0.460938 -0.429688 0.523438 -0.391623 -0.401209 0.828048
0.000000 -0.570312 0.570312 0.000000 -0.784294 0.620389
0.859375 0.046875 0.320312 0.998945 -0.006176 -0.045508
-0.859375 0.046875 0.320312 -0.998945 -0.006176 -0.045508
0.820312 0.203125 0.328125 0.896475 -0.322017 0.304363
-0.820312 0.203125 0.328125 -0.896475 -0.322017 0.304363
0.429688 0.210938 -0.195312 0.580905 0.146349 -0.800707
0.406250 -0.148438 -0.171875 0.573053 -0.160026 -0.803742
-0.429688 0.210938 -0.195312 -0.580905 0.146349 -0.800707
-0.406250 -0.148438 -0.171875 -0.573053 -0.160026 -0.803742
0.593750 0.164062 -0.125000 0.274439 0.055216 -0.960018
-0.593750 0.164062 -0.125000 -0.274439 0.055216 -0.960018
0.640625 0.429688 -0.007812 0.402034 0.676769 -0.616727
0.484375 0.546875 0.023438 0.544305 0.676630 -0.495887
-0.484375 0.546875 0.023438 -0.544305 0.676630 -0.495887
-0.640625 0.429688 -0.007812 -0.402034 0.676769 -0.616727
1.023438 0.312500 0.476562 0.016269 -0.486295 0.873643
0.890625 0.234375 0.406250 -0.287768 -0.609404 0.738794
0.921875 0.218750 0.359375 0.458991 -0.886195 -0.063129
1.015625 0.289062 0.414062 0.542056 -0.837633 -0.067428
-0.921875 0.218750 0.359375 -0.458991 -0.886195 -0.063129
-0.890625 0.234375 0.406250 0.287768 -0.609404 0.738794
-1.023438 0.312500 0.476562 -0.016269 -0.486295 0.873643
-1.015625 0.289062 0.414062 -0.542056 -0.837633 -0.067428
1.187500 0.390625 0.437500 0.317391 -0.943726 -0.092976
1.234375 0.421875 0.507812 0.360392 -0.359998 0.860534
-1.187500 0.390625 0.437500 -0.317391 -0.943726 -0.092977
-1.234375 0.421875 0.507812 -0.360392 -0.359998 0.860534
1.265625 0.406250 0.289062 -0.120083 -0.988701 -0.089729
1.351562 0.421875 0.320312 0.789585 -0.586956 0.178992
-1.265625 0.406250 0.289062 0.120083 -0.988701 -0.089729
-1.351562 0.421875 0.320312 -0.789585 -0.586956 0.178992
1.210938 0.406250 0.078125 -0.024011 -0.961442 0.273959
1.281250 0.429688 0.054688 0.673143 -0.545015 -0.499837
-1.210938 0.406250 0.078125 0.024011 -0.961442 0.273959
-1.281250 0.429688 0.054688 -0.673143 -0.545015 -0.499837
1.031250 0.304688 -0.039062 0.492173 -0.826328 0.273766
1.039062 0.328125 -0.101562 0.471889 -0.411664 -0.779649
-1.031250 0.304688 -0.039062 -0.492174 -0.826328 0.273766
-1.039062 0.328125 -0.101562 -0.471889 -0.411664 -0.779650
0.828125 0.132812 -0.070312 0.341330 -0.871266 0.352688
0.773438 0.125000 -0.140625 -0.043894 -0.760249 -0.648147
-0.828125 0.132812 -0.070312 -0.341330 -0.871266 0.352688
-0.773438 0.125000 -0.140625 0.043894 -0.760249 -0.648147
1.039062 0.367188 0.000000 -0.166543 -0.249702 0.953893
0.882812 0.210938 -0.023438 0.233006 -0.416392 0.878821
-0.882812 0.210938 -0.023438 -0.233006 -0.416392 0.878821
-1.039062 0.367188 0.000000 0.166543 -0.249702 0.953893
1.187500 0.445312 0.093750 -0.761349 -0.039926 0.647111
-1.187500 0.445312 0.093750 0.761349 -0.039926 0.647111
1.234375 0.445312 0.250000 -0.981036 -0.169828 -0.093412
-1.234375 0.445312 0.250000 0.981036 -0.169828 -0.093412
1.171875 0.437500 0.359375 -0.140968 -0.618808 -0.772790
-1.171875 0.437500 0.359375 0.140968 -0.618808 -0.772790
1.023438 0.359375 0.343750 0.558743 -0.504415 -0.658310
-1.023438 0.359375 0.343750 -0.558743 -0.504415 -0.658310
0.945312 0.289062 0.304688 0.687824 -0.469810 -0.553332
-0.945312 0.289062 0.304688 -0.687824 -0.469810 -0.553332
0.718750 0.171875 -0.023438 0.745070 -0.661489 0.085462
0.726562 0.070312 0.000000 0.861534 0.139986 -0.488020
-0.718750 0.171875 -0.023438 -0.745070 -0.661489 0.085462
-0.726562 0.070312 0.000000 -0.861534 0.139986 -0.488020
0.843750 0.210938 0.289062 0.742705 -0.616606 -0.261125
-0.843750 0.210938 0.289062 -0.742705 -0.616606 -0.261125
0.812500 0.273438 -0.015625 0.593321 -0.572028 0.566352
-0.812500 0.273438 -0.015625 -0.593321 -0.572028 0.566352
0.843750 0.273438 0.015625 0.883673 -0.463920 -0.062451
0.718750 0.187500 0.039062 0.921016 -0.348043 -0.174917
-0.718750 0.187500 0.039062 -0.921016 -0.348043 -0.174917
-0.843750 0.273438 0.015625 -0.883673 -0.463920 -0.062451
0.757812 0.273438 0.093750 0.858869 -0.510846 0.037144
0.820312 0.273438 0.085938 0.573111 -0.379558 0.726278
-0.757812 0.273438 0.093750 -0.858869 -0.510846 0.037144
-0.820312 0.273438 0.085938 -0.573111 -0.379557 0.726278
0.835938 0.273438 0.171875 0.748149 -0.322399 -0.579941
0.796875 0.210938 0.203125 0.871982 -0.244619 -0.424038
-0.796875 0.210938 0.203125 -0.871982 -0.244619 -0.424038
-0.835938 0.273438 0.171875 -0.748149 -0.322399 -0.579941
0.890625 0.265625 0.242188 0.696323 -0.471434 -0.541187
-0.890625 0.265625 0.242188 -0.696323 -0.471434 -0.541187
0.890625 0.320312 0.234375 0.666872 -0.605190 -0.434772
0.953125 0.343750 0.289062 0.635822 -0.654455 -0.409169
-0.890625 0.320312 0.234375 -0.666872 -0.605190 -0.434772
-0.953125 0.343750 0.289062 -0.635822 -0.654455 -0.409169
0.843750 0.320312 0.171875 0.571417 -0.701514 -0.425864
-0.843750 0.320312 0.171875 -0.571417 -0.701514 -0.425864
0.765625 0.320312 0.093750 0.783712 -0.567994 0.251355
-0.765625 0.320312 0.093750 -0.783712 -0.567994 0.251355
0.828125 0.320312 0.078125 0.444736 -0.813827 0.374026
-0.828125 0.320312 0.078125 -0.444736 -0.813827 0.374026
0.851562 0.320312 0.015625 0.373895 -0.851020 0.368737
-0.851562 0.320312 0.015625 -0.373895 -0.851020 0.368737
0.812500 0.320312 -0.015625 0.660045 -0.664970 0.349508
-0.812500 0.320312 -0.015625 -0.660045 -0.664970 0.349508
0.882812 0.265625 -0.015625 -0.050716 -0.302329 0.951854
-0.882812 0.265625 -0.015625 0.050716 -0.302329 0.951854
1.039062 0.414062 0.328125 0.484426 -0.807180 -0.337330
-1.039062 0.414062 0.328125 -0.484427 -0.807180 -0.337330
1.187500 0.484375 0.343750 -0.248466 -0.773832 -0.582622
-1.187500 0.484375 0.343750 0.248466 -0.773832 -0.582622
1.257812 0.492188 0.242188 -0.743310 -0.661826 -0.097345
-1.257812 0.492188 0.242188 0.743310 -0.661826 -0.097345
1.210938 0.484375 0.085938 -0.539190 -0.711477 0.450638
-1.210938 0.484375 0.085938 0.539190 -0.711477 0.450638
1.046875 0.421875 0.000000 0.087294 -0.666856 0.740056
-1.046875 0.421875 0.000000 -0.087294 -0.666856 0.740056
0.937500 0.335938 0.062500 0.385477 -0.915368 0.116227
0.890625 0.328125 0.109375 0.198355 -0.980117 0.005146
-0.937500 0.335938 0.062500 -0.385477 -0.915368 0.116227
-0.890625 0.328125 0.109375 -0.198355 -0.980117 0.005146
1.000000 0.367188 0.125000 0.431555 -0.901478 -0.033128
0.960938 0.351562 0.171875 0.328123 -0.944635 0.000207
-1.000000 0.367188 0.125000 -0.431555 -0.901478 -0.033128
-0.960938 0.351562 0.171875 -0.328123 -0.944635 0.000207
1.054688 0.382812 0.187500 0.344739 -0.935560 -0.076702
1.015625 0.375000 0.234375 0.317823 -0.943511 0.093672
-1.054688 0.382812 0.187500 -0.344739 -0.935560 -0.076702
-1.015625 0.375000 0.234375 -0.317823 -0.943511 0.093672
1.109375 0.390625 0.210938 0.436504 -0.899600 -0.013582
1.085938 0.390625 0.273438 0.357340 -0.885146 0.298034
-1.109375 0.390625 0.210938 -0.436504 -0.899600 -0.013582
-1.085938 0.390625 0.273438 -0.357340 -0.885146 0.298034
0.789062 0.328125 -0.125000 -0.079768 0.528337 -0.845279
1.039062 0.492188 -0.085938 -0.041871 0.714016 -0.698876
-0.789062 0.328125 -0.125000 0.079768 0.528337 -0.845280
-1.039062 0.492188 -0.085938 0.041871 0.714016 -0.698876
1.312500 0.531250 0.054688 0.614965 0.617369 -0.490585
-1.312500 0.531250 0.054688 -0.614965 0.617369 -0.490585
1.367188 0.500000 0.296875 0.923425 0.374108 0.085618
-1.367188 0.500000 0.296875 -0.923425 0.374108 0.085618
1.250000 0.546875 0.468750 0.304780 0.721361 0.621890
-1.250000 0.546875 0.468750 -0.304780 0.721361 0.621890
1.023438 0.484375 0.437500 -0.417647 0.716619 0.558595
-1.023438 0.484375 0.437500 0.417648 0.716619 0.558595
0.859375 0.382812 0.382812 -0.656186 0.492714 0.571536
-0.859375 0.382812 0.382812 0.656186 0.492714 0.571536
4 0 1 2 3
4 4 5 6 7
4 3 2 8 9
4 10 4 7 11
4 2 12 13 8
4 14 15 4 10
4 1 16 12 2
4 15 17 5 4
4 16 18 19 12
4 20 21 17 15
4 12 19 22 13
4 23 20 15 14
4 19 24 25 22
4 26 27 20 23
4 18 28 24 19
4 27 29 21 20
4 28 30 31 24
4 32 33 29 27
4 24 31 34 25
4 35 32 27 26
4 31 36 37 34
4 38 39 32 35
4 30 40 36 31
4 39 41 33 32
4 40 42 43 36
4 44 45 41 39
4 36 43 46 37
4 47 44 39 38
4 43 3 9 46
4 11 7 44 47
4 42 0 3 43
4 7 6 45 44
4 0 42 48 49
4 50 45 6 51
4 42 40 52 48
4 53 41 45 50
4 40 30 54 52
4 55 33 41 53
4 30 28 56 54
4 57 29 33 55
4 28 18 58 56
4 59 21 29 57
4 18 16 60 58
4 61 17 21 59
4 16 1 62 60
4 63 5 17 61
4 1 0 49 62
4 51 6 5 63
3 64 62 49
3 51 63 65
3 60 62 64
3 65 63 61
3 64 58 60
3 61 59 65
3 64 56 58
3 59 57 65
3 64 54 56
3 57 55 65
3 64 52 54
3 55 53 65
3 64 48 52
3 53 50 65
3 64 49 48
3 50 51 65
4 66 67 68 69
4 68 70 71 69
4 72 73 67 66
4 70 74 75 71
4 76 77 73 72
4 74 78 79 75
4 80 81 77 76
4 78 82 83 79
4 84 85 81 80
4 82 86 87 83
4 88 89 90 91
4 92 93 94 95
4 89 96 97 90
4 98 99 93 92
4 96 100 101 97
4 102 103 99 98
4 100 104 105 101
4 106 107 103 102
4 104 108 109 105
4 110 111 107 106
4 108 112 113 109
4 114 115 111 110
4 112 116 117 113
4 118 119 115 114
4 116 120 121 117
4 122 123 119 118
4 120 124 125 121
4 126 127 123 122
4 124 128 129 125
4 129 128 127 126
4 130 131 121 125
4 122 132 133 126
4 131 134 117 121
4 118 135 132 122
4 136 113 117 134
4 118 114 137 135
4 138 109 113 136
4 114 110 139 137
4 140 105 109 138
4 110 106 141 139
4 142 101 105 140
4 106 102 143 141
4 144 97 101 142
4 102 98 145 143
4 146 90 97 144
4 98 92 147 145
4 19 91 90 146
4 92 95 20 147
4 19 148 149 91
4 149 150 20 95
4 130 125 129 151
4 129 126 133 152
4 151 129 153 154
4 153 129 152 155
4 149 148 154 153
4 155 150 149 153
4 156 157 68 67
4 68 157 158 70
4 159 156 67 73
4 70 158 160 74
4 161 159 73 77
4 74 160 162 78
4 85 163 164 81
4 165 166 86 82
4 161 77 81 164
4 82 78 162 165
4 167 168 169 163
4 169 168 170 166
4 164 163 169 171
4 169 166 165 171
4 172 161 164 171
4 165 162 172 171
4 173 174 175 167
4 176 177 178 170
4 179 180 174 173
4 177 181 182 178
4 183 184 180 179
4 181 185 183 182
4 186 187 184 183
4 185 187 186 183
4 168 167 175 188
4 176 170 168 188
4 188 175 189 190
4 191 176 188 190
4 187 192 193 184
4 194 192 187 185
4 184 193 195 180
4 196 194 185 181
4 180 195 197 174
4 198 196 181 177
4 174 197 189 175
4 191 198 177 176
4 192 197 195 193
4 196 198 192 194
4 192 190 189 197
4 191 190 192 198
4 183 179 91 149
4 95 182 183 149
4 179 173 199 91
4 200 178 182 95
4 173 167 201 199
4 202 170 178 200
4 167 163 85 201
4 86 166 170 202
4 84 203 201 85
4 202 204 87 86
4 203 205 199 201
4 200 206 204 202
4 88 91 199 205
4 200 95 94 206
4 161 172 207 208
4 207 172 162 209
4 159 161 208 210
4 209 162 160 211
4 156 159 210 212
4 211 160 158 213
4 157 156 212 214
4 213 158 157 214
4 214 212 215 216
4 217 213 214 216
4 212 210 218 215
4 219 211 213 217
4 210 208 220 218
4 221 209 211 219
4 208 207 222 220
4 222 207 209 221
4 222 216 215 220
4 217 216 222 221
3 220 215 218
3 219 217 221
4 154 148 223 224
4 225 150 155 226
4 151 154 224 227
4 226 155 152 228
4 130 151 227 229
4 228 152 133 230
4 148 19 231 223
4 232 20 150 225
4 19 146 233 231
4 234 147 20 232
4 146 144 235 233
4 236 145 147 234
4 144 142 237 235
4 238 143 145 236
4 142 140 239 237
4 240 141 143 238
4 140 138 241 239
4 242 139 141 240
4 138 136 243 241
4 244 137 139 242
4 136 134 245 243
4 246 135 137 244
4 134 131 247 245
4 248 132 135 246
4 131 130 229 247
4 230 133 132 248
4 247 229 249 250
4 251 230 248 252
4 245 247 250 253
4 252 248 246 254
4 243 245 253 255
4 254 246 244 256
4 241 243 255 257
4 256 244 242 258
4 239 241 257 259
4 258 242 240 260
4 237 239 259 261
4 260 240 238 262
4 235 237 261 263
4 262 238 236 264
4 233 235 263 265
4 264 236 234 266
4 231 233 265 267
4 266 234 232 268
4 223 231 267 269
4 268 232 225 270
4 229 227 271 249
4 272 228 230 251
4 227 224 273 271
4 274 226 228 272
4 224 223 269 273
4 270 225 226 274
4 128 124 275 276
4 277 127 128 276
4 124 120 278 275
4 279 123 127 277
4 120 116 280 278
4 281 119 123 279
4 116 112 282 280
4 283 115 119 281
4 112 108 284 282
4 285 111 115 283
4 108 104 286 284
4 287 107 111 285
4 104 100 288 286
4 289 103 107 287
4 100 96 290 288
4 291 99 103 289
4 96 89 292 290
4 293 93 99 291
4 294 295 296 297
4 298 295 294 299
4 300 294 297 301
4 299 294 300 302
4 303 300 301 304
4 302 300 303 305
4 66 69 303 304
4 303 69 71 305
4 72 66 304 306
4 305 71 75 307
4 76 72 306 308
4 307 75 79 309
4 80 76 308 310
4 309 79 83 311
4 308 301 297 310
4 299 302 309 311
4 308 306 304 301
4 305 307 309 302
4 312 310 297 296
4 299 311 313 298
4 84 80 310 312
4 311 83 87 313
4 203 314 315 205
4 316 317 204 206
4 84 312 314 203
4 317 313 87 204
4 88 205 315 318
4 316 206 94 319
4 88 318 292 89
4 293 319 94 93
4 320 321 322 323
4 324 325 320 323
4 323 322 326 327
4 328 324 323 327
4 327 326 329 330
4 331 328 327 330
4 330 329 296 295
4 298 331 330 295
4 312 296 329 314
4 331 298 313 317
4 288 290 332 333
4 334 291 289 335
4 336 337 321 320
4 325 338 336 320
4 339 340 341 342
4 343 344 339 342
4 342 341 345 346
4 347 343 342 346
4 346 345 337 336
4 338 347 346 336
4 284 286 348 349
4 350 287 285 351
4 349 348 352 353
4 354 350 351 355
4 353 352 356 357
4 358 354 355 359
4 357 356 360 361
4 362 358 359 363
4 364 365 361 360
4 363 366 367 362
4 337 345 361 365
4 363 347 338 366
4 345 341 357 361
4 359 343 347 363
4 341 340 353 357
4 355 344 343 359
4 340 368 349 353
4 351 369 344 355
4 282 284 349 368
4 351 285 283 369
4 370 368 340 339
4 344 369 370 339
4 275 278 280 282
4 281 279 277 283
4 275 282 368 370
4 369 283 277 370
3 276 275 370
3 370 277 276
4 286 288 333 348
4 335 289 287 350
4 333 371 352 348
4 354 372 335 350
4 371 373 356 352
4 358 374 372 354
4 364 360 356 373
4 358 362 367 374
4 329 326 375 376
4 377 328 331 378
4 332 376 375 379
4 377 378 334 380
4 290 292 376 332
4 378 293 291 334
4 292 315 314 376
4 317 316 293 378
3 314 329 376
3 378 331 317
3 292 318 315
3 316 319 293
4 364 381 382 365
4 383 384 367 366
4 337 365 382 321
4 383 366 338 325
4 379 375 382 381
4 383 377 380 384
4 326 322 382 375
4 383 324 328 377
3 321 382 322
3 324 383 325
4 385 386 387 388
4 389 390 391 392
4 385 388 393 394
4 395 392 391 396
4 394 393 397 398
4 399 395 396 400
4 398 397 401 402
4 403 399 400 404
4 402 401 405 406
4 407 403 404 408
4 406 405 409 410
4 411 407 408 412
4 405 413 414 409
4 415 416 407 411
4 401 417 413 405
4 416 418 403 407
4 397 419 417 401
4 418 420 399 403
4 393 421 419 397
4 420 422 395 399
4 388 423 421 393
4 422 424 392 395
4 388 387 425 423
4 426 389 392 424
4 332 379 427 428
4 429 380 334 430
4 379 410 409 427
4 411 412 380 429
4 333 332 428 371
4 430 334 335 372
4 373 431 387 386
4 389 432 374 390
4 409 414 433 427
4 434 415 411 429
4 435 436 427 433
4 429 437 438 434
4 439 436 435 440
4 438 437 441 442
4 443 444 436 439
4 437 445 446 441
4 431 444 443 447
4 446 445 432 448
4 387 431 447 425
4 448 432 389 426
4 371 444 431 373
4 432 445 372 374
4 371 428 436 444
4 437 430 372 445
3 428 427 436
3 437 429 430
4 425 447 449 450
4 451 448 426 452
4 447 443 453 449
4 454 446 448 451
4 443 439 455 453
4 456 441 446 454
4 439 440 457 455
4 458 442 441 456
4 440 435 459 457
4 460 438 442 458
4 435 433 461 459
4 462 434 438 460
4 433 414 463 461
4 464 415 434 462
4 423 425 450 465
4 452 426 424 466
4 421 423 465 467
4 466 424 422 468
4 419 421 467 469
4 468 422 420 470
4 417 419 469 471
4 470 420 418 472
4 413 417 471 473
4 472 418 416 474
4 414 413 473 463
4 474 416 415 464
4 457 459 475 476
4 477 460 458 478
4 476 475 479 480
4 481 477 478 482
4 480 479 483 484
4 485 481 482 486
4 484 483 487 488
4 489 485 486 490
4 465 450 484 488
4 486 452 466 490
4 449 480 484 450
4 486 482 451 452
4 449 453 476 480
4 478 454 451 482
4 457 476 453 455
4 454 478 458 456
4 461 463 475 459
4 477 464 462 460
4 473 479 475 463
4 477 481 474 464
4 471 483 479 473
4 481 485 472 474
4 469 487 483 471
4 485 489 470 472
4 467 488 487 469
4 489 490 468 470
3 465 488 467
3 468 490 466
4 406 410 491 492
4 493 412 408 494
4 402 406 492 495
4 494 408 404 496
4 398 402 495 497
4 496 404 400 498
4 394 398 497 499
4 498 400 396 500
4 385 394 499 501
4 500 396 391 502
4 386 385 501 503
4 502 391 390 504
4 501 492 491 503
4 493 494 502 504
4 501 499 495 492
4 496 500 502 494
3 499 497 495
3 496 498 500
4 364 373 386 503
4 390 374 367 504
4 364 503 491 381
4 493 504 367 384
4 379 381 491 410
4 493 384 380 412
